<svg width="365" height="146" viewBox="0 0 365 146" fill="none" xmlns="http://www.w3.org/2000/svg">
<path d="M30.1841 27.0582H142.105C145.531 27.0582 148.309 29.8359 148.309 33.2623V115.551C148.309 118.978 145.531 121.755 142.105 121.755H30.1841C26.7577 121.755 23.98 118.978 23.98 115.551V33.2623C23.98 29.8359 26.7577 27.0583 30.1841 27.0582Z" fill="#233040" stroke="#46A4E0" stroke-width="0.77552"/>
<path d="M116.535 72.0899L116.783 72.1772C116.918 72.3559 116.918 72.3559 117.046 72.572L117.181 72.7881C117.278 72.9751 117.278 72.9751 117.278 73.1538H117.445C117.576 73.3325 117.576 73.3325 117.731 73.5861L117.902 73.8645L118.08 74.1596C118.196 74.3507 118.312 74.5378 118.428 74.7248L118.599 75.0074C118.804 75.3357 119.013 75.6557 119.222 75.9757C119.362 76.1918 119.493 76.4079 119.617 76.6282C120.047 77.3597 120.52 78.0579 121.007 78.7436C121.251 79.0885 121.476 79.4501 121.697 79.8117C122.336 80.8423 122.99 81.8564 123.641 82.8704L123.753 83.045C124.009 83.444 124.268 83.8388 124.539 84.2294L124.632 84.3998V84.6658H124.799C124.907 84.8279 124.907 84.8279 125.039 85.0648C125.279 85.4762 125.527 85.8793 125.782 86.2742C126.173 86.8768 126.553 87.4877 126.928 88.0986C127.529 89.0587 128.141 90.0104 128.764 90.9538L128.892 91.1491L129.02 91.3403C129.813 92.5413 130.596 93.7549 131.351 94.9892C131.486 95.2053 131.486 95.2053 131.649 95.4173C131.843 95.6791 132.009 95.9534 132.176 96.2318L132.272 96.3981C132.424 96.6474 132.571 96.8968 132.718 97.1503C132.95 97.5493 133.19 97.9358 133.45 98.3139C133.903 98.9664 134.306 99.6522 134.712 100.342L134.863 100.596C134.96 100.783 134.96 100.783 134.96 100.961H135.123V101.227H135.289C135.382 101.348 135.382 101.348 135.487 101.518L135.607 101.714L135.734 101.921L136.002 102.366L136.141 102.595C136.354 102.944 136.571 103.289 136.788 103.634L137.036 104.033C137.187 104.278 137.338 104.523 137.493 104.764C137.829 105.304 138.159 105.845 138.484 106.389C138.74 106.817 139.003 107.237 139.278 107.648C139.433 107.889 139.584 108.13 139.735 108.375C140.296 109.286 140.9 110.167 141.504 111.044C141.578 111.143 141.648 111.247 141.717 111.351C141.814 111.497 141.911 111.638 142.012 111.779L142.147 112.029C142.112 112.224 142.112 112.224 142.062 112.386C139.444 112.403 136.83 112.419 134.213 112.436C133.105 112.444 131.998 112.448 130.89 112.457C129.995 112.461 129.101 112.469 128.21 112.473C128.021 112.473 127.835 112.473 127.649 112.473C127.3 112.477 126.956 112.477 126.607 112.477L126.309 112.482C125.329 112.482 124.357 112.403 123.385 112.315C123.184 112.299 122.979 112.286 122.777 112.282C121.186 112.232 119.753 111.393 118.405 110.545L118.27 110.437V110.258L118.088 110.196C117.41 109.863 116.907 109.053 116.453 108.438C116.295 108.222 116.295 108.222 116.124 108.055C115.954 107.86 115.842 107.661 115.722 107.424C115.54 107.079 115.327 106.751 115.121 106.418L114.986 106.198L114.858 105.99L114.742 105.799C114.645 105.641 114.645 105.641 114.471 105.566C114.382 105.392 114.308 105.213 114.231 105.034C114.149 104.855 114.149 104.855 114.025 104.739C113.874 104.569 113.778 104.398 113.669 104.195C113.386 103.675 113.069 103.185 112.748 102.694L112.581 102.437C112.244 101.921 111.907 101.418 111.559 100.916C111.419 100.699 111.291 100.479 111.168 100.251C110.831 99.6605 110.471 99.0911 110.091 98.5301C109.82 98.1269 109.557 97.7196 109.297 97.3082C109.003 96.8386 108.685 96.3856 108.352 95.9492C108.108 95.6209 107.899 95.2718 107.682 94.9185C107.555 94.7107 107.423 94.5071 107.283 94.3076L107.121 94.0541V93.8754H106.954V93.6094L106.706 93.5221C106.59 93.3808 106.59 93.3808 106.474 93.198L106.342 92.9985L106.211 92.7907L106.075 92.5871C105.862 92.2546 105.653 91.9221 105.467 91.573L105.715 91.3943L105.796 91.4857L105.882 91.307H106.129L106.145 91.1574C106.242 90.8623 106.408 90.7169 106.625 90.5091L106.83 90.401C107.148 90.16 107.28 89.815 107.45 89.4493H107.617L107.632 89.3039C107.729 88.9922 107.899 88.7968 108.112 88.5599C108.345 88.4394 108.345 88.4394 108.523 88.3854V88.0321H108.77L108.689 87.7662C108.832 87.5542 108.832 87.5542 109.018 87.3215C109.165 87.097 109.165 87.097 109.266 86.8809V86.615H109.514L109.576 86.3864C109.692 86.0414 109.851 85.7505 110.033 85.4388L110.234 85.0856L110.335 84.911C110.443 84.7157 110.552 84.5245 110.66 84.3292C110.893 83.9136 111.129 83.5021 111.365 83.0866L111.481 82.8788C111.655 82.5712 111.83 82.2678 112.012 81.9644C112.376 81.3452 112.689 80.7135 112.988 80.0569C113.185 79.6246 113.402 79.2091 113.623 78.7893C113.75 78.5441 113.75 78.5441 113.727 78.1992H113.975L113.894 77.9332H114.142L114.196 77.7254C114.374 77.2059 114.633 76.7321 114.885 76.25C115.106 75.8095 115.268 75.4147 115.35 74.9243C115.4 74.6209 115.489 74.3923 115.629 74.1263C115.849 74.0432 115.849 74.0432 116.039 74.0391L116.124 74.2136C116.314 73.7398 116.403 73.3325 116.43 72.8172C116.453 72.6219 116.453 72.6219 116.62 72.3559L116.535 72.0899Z" fill="url(#paint0_linear_1_233)"/>
<path d="M91.9533 110.774C92.9005 109.906 93.6717 108.631 94.135 107.296C94.4699 106.279 94.8099 105.07 94.6985 103.95L94.6802 103.762C94.5207 102.168 94.1707 100.68 93.392 99.3403C93.3114 99.2115 93.2337 99.082 93.1538 98.9569L93.0249 98.7447C92.5595 98.0055 92.043 97.338 91.5113 96.6701L91.2798 96.3755C91.1309 96.1867 90.9819 95.9979 90.8336 95.8127C90.5137 95.4137 90.199 95.0097 89.8843 94.6058C89.6197 94.2621 89.3529 93.9227 89.0861 93.5833C88.5567 92.9112 88.0266 92.2354 87.5041 91.5504C86.8652 90.7069 86.2115 89.8818 85.5451 89.0709C85.2653 88.7269 84.9878 88.3786 84.7132 88.0296C84.4513 87.7005 84.1893 87.3713 83.9274 87.0421L83.8228 86.9149C83.6505 86.6975 83.4753 86.4806 83.3037 86.2668C82.9569 85.8361 82.6159 85.4041 82.2773 84.9679C82.1044 84.7468 81.9263 84.5306 81.7482 84.3145L81.6429 84.1837C81.4684 83.9705 81.2968 83.7566 81.12 83.5477C80.7243 83.064 80.3389 82.5704 79.9582 82.0683C79.4744 81.431 78.9771 80.8195 78.4664 80.2184C78.3081 80.0279 78.1497 79.8375 77.9914 79.647L77.8246 79.4434L77.4995 79.0493C77.1171 78.5889 77.1171 78.5889 76.9205 78.3882C76.741 78.1987 76.5999 77.9855 76.4481 77.7635C76.2694 77.5098 76.0764 77.2781 75.8827 77.0429C75.7937 76.9348 75.7075 76.8261 75.6191 76.7216L75.4799 76.5532C75.3364 76.3782 75.193 76.2033 75.0518 76.024C74.5276 75.3808 74.001 74.7419 73.4619 74.1171C73.2057 73.8205 72.9518 73.5196 72.6979 73.2188C71.9936 72.3824 71.2809 71.5668 70.5249 70.7985L70.4022 70.6716C69.4623 69.7223 68.2079 69.0694 67.0398 68.7812L66.8781 68.7421C66.6152 68.6804 66.4019 68.6416 66.145 68.733L66.1173 68.5773C65.8722 68.5644 65.6307 68.5544 65.3863 68.5451L65.184 68.5339C63.8464 68.487 62.5248 68.8883 61.2261 69.1791C61.0773 69.2124 60.9284 69.2457 60.7796 69.279C59.2364 69.6283 57.698 69.9877 56.1615 70.3581L55.7105 70.4666C54.747 70.6973 53.7842 70.9317 52.8285 71.2059C52.4903 71.3005 52.1479 71.3884 51.8028 71.4619C51.8195 71.6577 51.8195 71.6577 51.8854 71.9254C51.9844 72.0726 52.0903 72.2071 52.202 72.3402C52.3228 72.4901 52.4121 72.6509 52.5018 72.8304L52.6243 72.8029L52.7059 72.9541C52.8224 73.1652 52.9444 73.3563 53.0794 73.552L53.2122 73.7519C53.3271 73.9032 53.4324 74.0001 53.5707 74.1122L53.6733 74.3302L53.7987 74.3021L53.84 74.5339L53.9655 74.5058L54.037 74.6517C54.1914 74.9221 54.3692 75.1534 54.5547 75.3942L54.6683 75.5382C54.9251 75.8723 55.1916 76.193 55.4685 76.5037C55.586 76.6356 55.586 76.6355 55.6763 76.8526L55.8018 76.8245L55.843 77.0562L55.9685 77.0281L56.0371 77.1747C56.198 77.4474 56.3832 77.6695 56.5798 77.9041C56.6562 77.9924 56.7297 78.0814 56.8032 78.1704L56.9036 78.291C57.0011 78.4122 57.0011 78.4122 57.0929 78.6213L57.2184 78.5933L57.2597 78.825L57.3823 78.7975L57.4609 78.9494C57.5894 79.1766 57.7299 79.3523 57.8918 79.5457L58.0771 79.7678L58.2723 79.9952C58.3996 80.1474 58.5262 80.296 58.6535 80.4483L58.8225 80.6477C58.9763 80.8467 59.1126 81.0496 59.2485 81.2677L59.3711 81.2402L59.4653 81.4451C59.5791 81.6756 59.5791 81.6756 59.7459 81.8792L59.8685 81.8518L59.9098 82.0835L60.0353 82.0554L60.2426 82.4872L60.3652 82.4598L60.438 82.6129C60.5856 82.8622 60.7576 83.061 60.9425 83.2643C61.242 83.6001 61.5225 83.9477 61.8019 84.3069C62.0538 84.6308 62.3132 84.9455 62.5725 85.2602C63.4077 86.2856 64.2369 87.3124 65.0548 88.3605L65.2349 88.5875C65.3485 88.7315 65.4599 88.8798 65.5736 89.0238C65.8805 89.4182 66.2001 89.7984 66.5301 90.1689C66.8034 90.4767 67.0625 90.8065 67.3209 91.1327L67.4776 91.3311C67.7353 91.6536 67.9908 91.9805 68.2463 92.3074C68.4862 92.6151 68.732 92.9215 68.98 93.2237L69.2358 93.5354L69.5234 93.889C69.7643 94.1852 70.0016 94.4785 70.2419 94.7711L70.5839 95.1916L70.7344 95.3725C70.8474 95.5128 70.8474 95.5128 70.94 95.6578L71.0626 95.6303L71.149 95.7917C71.239 95.9561 71.3341 96.1155 71.4374 96.2694L71.56 96.2419L71.6393 96.3974C71.7635 96.6181 71.9011 96.7943 72.0595 96.9848L72.2405 97.2003L72.418 97.4129C72.5154 97.5341 72.6129 97.6554 72.7097 97.773L72.8574 97.9546C73.5406 98.7919 74.2151 99.6311 74.8931 100.473L74.9997 100.611C75.0696 100.697 75.1396 100.783 75.2095 100.869C75.4362 101.154 75.6651 101.434 75.897 101.713C75.998 101.838 75.998 101.838 76.0899 102.047L76.2153 102.019L76.2875 102.168C76.4448 102.438 76.63 102.66 76.823 102.892C76.8965 102.981 76.97 103.07 77.0465 103.158L77.1433 103.275C77.242 103.404 77.3291 103.535 77.4181 103.677L77.5407 103.65L77.6086 103.793C77.7828 104.089 77.9975 104.323 78.2148 104.572C78.5674 104.967 78.5674 104.967 78.8932 105.399C79.1085 105.705 79.3507 105.974 79.5936 106.247C79.7494 106.423 79.8724 106.569 79.9792 106.794L80.1047 106.766L80.1459 106.997L80.2685 106.97L80.3371 107.116C80.5022 107.396 80.6961 107.616 80.905 107.851L81.169 108.158L81.3063 108.315C81.4394 108.466 81.5702 108.621 81.7046 108.779C82.1424 109.295 82.5802 109.811 83.0576 110.276L83.16 110.374C84.2343 111.414 85.4002 112.064 86.736 112.322C87.0838 112.383 87.4293 112.415 87.7804 112.427L87.9383 112.444C89.4347 112.531 90.7673 111.766 91.9533 110.774Z" fill="url(#paint1_linear_1_233)"/>
<path d="M126.68 37.5734H127.123C127.526 37.5734 127.925 37.5734 128.328 37.5772C128.747 37.5772 129.167 37.5772 129.586 37.5772C130.378 37.5772 131.173 37.5772 131.968 37.5772C132.872 37.5772 133.772 37.581 134.676 37.581C136.536 37.581 138.395 37.581 140.254 37.5848C140.203 38.0056 140.107 38.2198 139.875 38.5602C139.545 39.0575 139.244 39.5662 138.948 40.0902L138.814 40.3235C138.555 40.7863 138.303 41.2492 138.05 41.7158C137.685 42.3967 137.29 43.0584 136.89 43.7201C136.512 44.3512 136.143 44.99 135.792 45.6441C135.56 46.0763 135.314 46.497 135.062 46.9139C134.857 47.2582 134.659 47.6024 134.468 47.9543C134.001 48.8035 133.503 49.6258 133.008 50.452C132.715 50.9416 132.421 51.4312 132.128 51.9247L131.589 52.8273L130.869 54.0399C130.497 54.6672 130.122 55.2944 129.747 55.9217C129.283 56.702 128.815 57.4823 128.379 58.2817C128.051 58.8746 127.697 59.4445 127.349 60.0183C126.987 60.6073 126.629 61.2002 126.274 61.7969L126.131 62.0379L125.697 62.7684C125.489 63.1203 125.281 63.4684 125.073 63.8165L124.933 64.0575C124.715 64.4208 124.497 64.7842 124.271 65.1399C124.033 65.5224 123.807 65.9087 123.582 66.2989C123.122 67.0945 122.654 67.8862 122.184 68.6742C122.061 68.8769 121.941 69.0758 121.822 69.2785C121.454 69.9058 121.078 70.5255 120.696 71.1413C120.543 71.3861 120.396 71.6309 120.246 71.8757C119.925 72.3959 119.605 72.9123 119.28 73.4248C119.042 73.8035 118.803 74.186 118.574 74.5723C118.322 75.0007 118.059 75.4214 117.796 75.8422C116.923 77.2345 116.074 78.6459 115.224 80.0573L114.651 81.0059C114.487 81.2775 114.324 81.549 114.167 81.8244L114.006 82.096L113.873 82.3293L113.764 82.4938H113.617L113.594 82.6353C113.501 82.9834 113.293 83.2741 113.113 83.5724C113.072 83.6413 113.031 83.7101 112.99 83.779L112.768 84.1577L112.672 84.2877H112.526L112.505 84.4216C112.437 84.6626 112.331 84.8385 112.205 85.0451L112.055 85.3013L111.895 85.5653L111.738 85.8254C111.635 85.9937 111.533 86.1619 111.431 86.3341C111.062 86.9422 110.704 87.5542 110.356 88.1739L109.954 88.8815C109.595 89.5126 109.234 90.1437 108.862 90.7672C108.729 90.9929 108.596 91.2224 108.466 91.4519C108.04 92.1939 107.606 92.9283 107.173 93.6627C107.037 93.8999 106.897 94.1332 106.757 94.3703C106.337 95.0856 105.914 95.8009 105.491 96.5123C105.229 96.9522 104.969 97.3921 104.71 97.8358C104.666 97.9161 104.618 97.9964 104.57 98.0767C104.277 98.5854 103.983 99.098 103.697 99.6105C103.325 100.268 102.943 100.919 102.554 101.565C101.728 102.942 100.923 104.327 100.149 105.738C99.7123 106.538 99.2586 107.322 98.7708 108.087L98.6821 108.224C97.7746 109.64 96.7341 110.757 95.332 111.529C94.9602 111.713 94.5849 111.854 94.196 111.977L94.0459 112.026C92.9303 112.363 91.8011 112.348 90.6583 112.348H90.1398C89.7782 112.348 89.4165 112.348 89.0549 112.344C88.6012 112.344 88.1441 112.344 87.6869 112.348C82.6107 112.355 82.6107 112.355 81.8875 112C81.9079 111.671 81.9386 111.464 82.099 111.185L82.2832 110.944C82.5527 110.573 82.7915 110.198 83.0132 109.789C83.3476 109.177 83.6955 108.584 84.0503 107.991L84.139 107.846C84.2516 107.654 84.3676 107.463 84.4802 107.272C84.6541 106.985 84.8247 106.694 84.9987 106.404C85.4285 105.673 85.8652 104.946 86.3087 104.223C86.4827 103.937 86.6601 103.646 86.8341 103.359L86.9398 103.191C87.3663 102.483 87.7688 101.764 88.1679 101.037C88.4204 100.574 88.6865 100.135 88.9765 99.7023C89.0754 99.5532 89.1607 99.4002 89.2357 99.2395C89.4029 98.9144 89.6008 98.6428 89.8123 98.356C90.1159 97.9314 90.4127 97.4953 90.6208 97.0019H90.7641L90.8289 96.8183C90.8971 96.6271 90.9653 96.4473 91.0575 96.2675L91.2007 96.1872L91.2758 95.9424H91.4191L91.4805 95.7703C91.5692 95.5217 91.6749 95.2845 91.7841 95.0435H91.9308L91.9854 94.8752C92.0911 94.5922 92.2242 94.3359 92.3675 94.0682H92.5107L92.5619 93.9037C92.6847 93.5862 92.8519 93.3185 93.0259 93.0392C93.0907 92.9321 93.1589 92.8212 93.2237 92.7141L93.3124 92.5688C93.3977 92.4234 93.3977 92.4234 93.4591 92.1939H93.6024L93.6502 92.0295C93.7832 91.6967 93.9674 91.4175 94.1551 91.1229C94.2267 91.0082 94.2983 90.8934 94.3734 90.7749L94.4689 90.6219C94.561 90.4727 94.561 90.4727 94.6224 90.2355H94.7691L94.8169 90.0711C94.9431 89.7574 95.1069 89.4897 95.2808 89.2066C95.3491 89.0995 95.4139 88.9924 95.4787 88.8815L95.5674 88.74C95.6527 88.5946 95.6527 88.5946 95.7141 88.3613H95.8608L95.912 88.1968C96.0314 87.8908 96.1849 87.6269 96.352 87.3477C96.4237 87.2253 96.4953 87.1029 96.567 86.9805C96.6045 86.9116 96.642 86.8466 96.6829 86.7816C96.9456 86.3264 97.2049 85.8674 97.4642 85.4084C97.7951 84.827 98.126 84.2456 98.4876 83.691C99.8283 81.5414 100.78 79.2158 101.012 76.5919C101.043 76.1061 101.043 75.628 100.992 75.146C100.947 74.7176 100.94 74.2931 100.94 73.8647L100.937 73.6161C100.937 73.4401 100.937 73.2642 100.937 73.092C100.937 72.8281 100.934 72.5642 100.93 72.3003C100.923 70.3457 101.34 68.7928 102.192 67.0868L102.268 66.9338C102.568 66.3257 102.568 66.3257 102.701 66.1115H102.847L102.892 65.9126C103.001 65.5989 103.137 65.3579 103.308 65.0825C103.468 64.8224 103.618 64.5547 103.772 64.2908L103.864 64.1531H104.011L104.062 63.9848C104.171 63.7094 104.314 63.4761 104.471 63.2313C104.662 62.9253 104.853 62.6193 105.024 62.2941L105.174 62.034H105.321L105.375 61.8657C105.485 61.5827 105.618 61.3264 105.757 61.0587H105.904L105.959 60.8827C106.085 60.5538 106.269 60.2746 106.453 59.98C106.675 59.6243 106.893 59.2686 107.098 58.9014C107.262 58.6107 107.432 58.3276 107.617 58.0523C108.241 57.1037 108.807 56.1092 109.374 55.1223C109.653 54.6366 109.94 54.1584 110.233 53.6803C110.813 52.747 111.369 51.7946 111.932 50.8422C112.481 49.9165 113.041 48.9947 113.621 48.092C113.887 47.6828 114.139 47.2658 114.388 46.8413C114.723 46.279 115.06 45.7167 115.402 45.1583L115.49 45.0053C115.886 44.355 116.285 43.7048 116.701 43.066C116.821 42.8901 116.821 42.8901 116.892 42.7179H117.039L117.087 42.5841C117.217 42.324 117.39 42.1213 117.575 41.9032L117.691 41.7617C117.814 41.6202 117.933 41.4748 118.056 41.3333L118.165 41.2033C119.369 39.7842 120.846 38.5679 122.535 38.0018C123.098 37.822 123.661 37.7225 124.241 37.6652L124.425 37.646C125.175 37.5695 125.926 37.5734 126.68 37.5734Z" fill="url(#paint2_linear_1_233)"/>
<path d="M64.8009 62.7548C66.0393 63.4203 67.1617 64.541 67.9497 65.7918C68.5297 66.7481 69.1539 67.8994 69.2529 69.0622L69.2699 69.2572C69.4098 70.9134 69.3143 72.5046 68.707 74.0423C68.6422 74.1914 68.5808 74.3406 68.516 74.486L68.4137 74.7308C68.0384 75.5876 67.5915 76.3832 67.1275 77.1826L66.9263 77.5345C66.7966 77.7601 66.667 77.9858 66.5374 78.2077C66.2576 78.6858 65.9847 79.1677 65.7118 79.6497C65.4832 80.0589 65.2512 80.4644 65.0193 80.8698C64.5587 81.6731 64.0982 82.4802 63.6479 83.2949C63.0986 84.297 62.5289 85.2839 61.9421 86.2592C61.6965 86.6723 61.4543 87.0892 61.2155 87.5062C60.9869 87.9001 60.7583 88.2941 60.5298 88.6881L60.4377 88.8411C60.2876 89.1012 60.1341 89.3613 59.9839 89.6175C59.6803 90.1339 59.3835 90.6503 59.0901 91.1705C58.94 91.4344 58.7831 91.6945 58.6262 91.9546L58.5341 92.1114C58.3806 92.3677 58.2305 92.624 58.0735 92.8764C57.7256 93.4578 57.3912 94.0469 57.0637 94.6436C56.6475 95.4009 56.2109 96.1353 55.7572 96.862C55.6173 97.0915 55.4774 97.321 55.3375 97.5505L55.1908 97.7953L54.9043 98.2696C54.5666 98.8242 54.5666 98.8242 54.3857 99.0729C54.222 99.3062 54.106 99.5548 53.9798 99.8149C53.8297 100.113 53.6591 100.392 53.4885 100.676C53.4101 100.806 53.335 100.936 53.2566 101.062L53.1337 101.265C53.0075 101.475 52.8813 101.685 52.7585 101.9C52.2979 102.672 51.834 103.441 51.353 104.198C51.1244 104.558 50.8992 104.921 50.6741 105.285C50.0498 106.294 49.4118 107.285 48.7159 108.237L48.6033 108.394C47.7368 109.572 46.4575 110.521 45.2021 111.079L45.0281 111.156C44.745 111.278 44.513 111.366 44.206 111.332V111.496C43.933 111.565 43.6635 111.63 43.3906 111.695L43.1655 111.753C41.6712 112.105 40.1054 111.997 38.5873 111.997C38.4133 111.997 38.2393 111.997 38.0653 111.997C36.2607 111.994 34.4594 111.978 32.6582 111.952L32.1294 111.944C31.0002 111.929 29.871 111.909 28.7418 111.848C28.3427 111.829 27.9401 111.818 27.5376 111.821C27.5171 111.619 27.5171 111.619 27.5376 111.332C27.6194 111.16 27.7116 110.999 27.8105 110.838C27.9162 110.659 27.9845 110.475 28.0493 110.272H28.1926L28.254 110.1C28.3427 109.859 28.4416 109.637 28.5542 109.408L28.6633 109.175C28.7623 108.995 28.8612 108.872 28.9943 108.727L29.0659 108.482H29.2126V108.237H29.3593L29.4105 108.073C29.5299 107.763 29.6834 107.488 29.8437 107.201L29.9426 107.029C30.1644 106.631 30.3998 106.245 30.6488 105.866C30.7546 105.705 30.7546 105.705 30.8126 105.464H30.9593V105.22H31.106L31.1537 105.055C31.2799 104.741 31.4437 104.474 31.6177 104.191C31.6859 104.084 31.7507 103.976 31.8155 103.869L31.9042 103.724C31.9895 103.579 31.9895 103.579 32.0509 103.345H32.1976V103.101H32.3409L32.3989 102.928C32.4978 102.668 32.6206 102.458 32.7639 102.225L32.9277 101.957L33.1017 101.681C33.2142 101.498 33.3268 101.318 33.4394 101.135L33.5895 100.894C33.7225 100.656 33.8351 100.419 33.9443 100.167H34.0876L34.1524 99.9373C34.2343 99.6772 34.2343 99.6772 34.381 99.4324H34.5242V99.1876H34.6709L34.8176 98.7018H34.9609L35.0121 98.5297C35.1281 98.2428 35.2816 98.0019 35.4487 97.7533C35.7182 97.344 35.9639 96.9271 36.2061 96.4987C36.4244 96.1123 36.653 95.7337 36.8816 95.355C37.615 94.1234 38.3417 92.8917 39.0512 91.641L39.2082 91.3694C39.3071 91.1973 39.4026 91.0213 39.5016 90.8492C39.7676 90.3787 40.0508 89.9197 40.3476 89.4684C40.5932 89.0935 40.8184 88.6996 41.0435 88.3094L41.18 88.0723C41.4051 87.6859 41.6269 87.2958 41.8486 86.9056C42.0567 86.5384 42.2717 86.1712 42.49 85.8079L42.7151 85.433L42.9676 85.0085C43.1791 84.6527 43.3872 84.3008 43.5987 83.9489L43.8989 83.444L44.032 83.226C44.1309 83.0577 44.1309 83.0577 44.206 82.8894H44.3492L44.4141 82.7058C44.4823 82.5184 44.5573 82.3348 44.6426 82.155H44.7859L44.8439 81.9791C44.9394 81.7266 45.0588 81.5163 45.1987 81.2868L45.359 81.0267L45.516 80.7704C45.6012 80.625 45.6865 80.4797 45.7718 80.3382L45.9014 80.1201C46.5019 79.1142 47.092 78.1082 47.6856 77.0984L47.7778 76.9339C47.8392 76.8307 47.9006 76.7274 47.962 76.6241C48.1598 76.2837 48.3611 75.9471 48.5658 75.6105C48.6545 75.4613 48.6545 75.4613 48.7159 75.228H48.8626L48.9138 75.0597C49.0366 74.7499 49.2003 74.4821 49.3709 74.2029C49.4357 74.0958 49.5005 73.9887 49.5688 73.8816L49.6541 73.7401C49.7393 73.5871 49.811 73.4341 49.8826 73.2696H50.0259L50.0737 73.109C50.2101 72.7686 50.4046 72.4817 50.599 72.1795C50.9163 71.6976 50.9163 71.6976 51.196 71.185C51.3768 70.8255 51.5952 70.4965 51.8135 70.1638C51.9534 69.9496 52.0625 69.7736 52.1376 69.5212H52.2843V69.2764H52.4276L52.4753 69.1119C52.605 68.7906 52.7789 68.5228 52.9666 68.236L53.202 67.8649L53.3248 67.6737C53.4442 67.4901 53.5602 67.3027 53.6796 67.1114C54.0685 66.488 54.4574 65.8645 54.9009 65.2831L54.9964 65.1607C55.996 63.8602 57.1763 62.9346 58.6262 62.3685C59.0049 62.2269 59.3869 62.116 59.7793 62.0242L59.9532 61.9707C61.618 61.5423 63.2692 62.0166 64.8009 62.7548Z" fill="url(#paint3_linear_1_233)"/>
<path d="M97.5367 37.5921C97.9222 37.5921 98.3077 37.596 98.6897 37.5998C99.4198 37.6036 100.146 37.6074 100.873 37.6113C102.094 37.6227 103.316 37.6304 104.534 37.638H104.769C105.223 37.6419 105.676 37.6457 106.13 37.6495L107.389 37.6572C108.088 37.661 108.788 37.6648 109.487 37.661H109.664C109.937 37.661 110.214 37.661 110.487 37.6572H110.773L111.022 37.6533C111.213 37.6648 111.213 37.6648 111.36 37.7451C111.237 38.0435 111.077 38.3036 110.913 38.5752L110.824 38.7205C110.763 38.8238 110.701 38.9232 110.64 39.0265C110.545 39.1795 110.452 39.3325 110.36 39.4855C110.091 39.9254 109.825 40.3652 109.552 40.7975C109.357 41.1073 109.177 41.4171 109.003 41.7384C108.174 43.2416 107.29 44.7066 106.417 46.1754L106.14 46.642C106.011 46.86 105.878 47.0819 105.748 47.2999L105.629 47.5026C105.441 47.8201 105.24 48.1261 105.028 48.4245C104.953 48.5851 104.882 48.7496 104.81 48.9102C104.66 49.1856 104.66 49.1856 104.517 49.3998H104.373L104.339 49.5528C104.298 49.7249 104.298 49.7249 104.227 49.8894H104.08L104.056 50.0309C104.005 50.2337 103.93 50.3828 103.831 50.5626L103.735 50.7347L103.643 50.8686H103.5L103.449 51.0293C103.326 51.3467 103.179 51.6527 102.988 51.9281H102.845L102.79 52.1385C102.691 52.4407 102.565 52.6702 102.408 52.9379L102.32 53.0833C102.227 53.2401 102.135 53.3969 102.043 53.5537C101.978 53.6608 101.917 53.7679 101.852 53.875C101.514 54.445 101.177 55.0111 100.839 55.5771C100.604 55.9749 100.375 56.3766 100.15 56.7782C99.8087 57.3825 99.4607 57.9869 99.1025 58.5798C98.874 58.9622 98.6454 59.3447 98.4202 59.7272L97.987 60.454L97.8232 60.7294L97.6765 60.9742L97.564 61.1616L97.2228 61.7353C97.0386 62.0452 96.8578 62.3512 96.6736 62.6572C96.213 63.426 95.7559 64.1986 95.3056 64.9789C94.9064 65.6712 94.5005 66.3636 94.0979 67.0521C93.8045 67.5493 93.5146 68.0504 93.2314 68.5553C92.6822 69.5192 92.1227 70.4716 91.553 71.424C90.9389 72.4529 90.3283 73.4895 89.721 74.526C89.2468 75.3446 88.7624 76.1593 88.278 76.9664C87.9675 77.4827 87.6707 78.0029 87.3773 78.5308C87.2034 78.8483 87.0191 79.1657 86.8315 79.4756C86.6712 79.422 86.6712 79.422 86.4699 79.3149C86.3061 79.116 86.3061 79.116 86.1424 78.8636L86.0503 78.7259C85.9445 78.569 85.8422 78.4122 85.7398 78.2554L85.6273 78.0756C85.4226 77.762 85.2213 77.4483 85.02 77.1347C84.8358 76.8516 84.6516 76.5724 84.464 76.2932C84.0887 75.7386 83.7339 75.1686 83.3791 74.6025C83.1983 74.3118 83.0175 74.025 82.8333 73.7343L82.7275 73.566C82.5331 73.2523 82.3352 72.9463 82.1339 72.6365C82.0077 72.4453 81.8815 72.2502 81.7518 72.0589C81.5642 71.7682 81.4005 71.5081 81.3015 71.1639H81.1548C81.0389 71.0147 81.0389 71.0147 80.9365 70.8349V70.594H80.7932C80.7182 70.4563 80.6431 70.3224 80.5749 70.1847C80.4487 69.9896 80.3156 69.7946 80.1826 69.6033C79.8107 69.0525 79.4593 68.4902 79.1148 67.9203C78.8419 67.4728 78.5621 67.0291 78.2756 66.5931C77.1737 64.8909 76.2458 63.3227 76.007 61.1807C75.9114 59.7119 76.3003 58.247 76.7882 56.9006H76.9349L77.0065 56.4913H77.1532L77.2112 56.3192C77.4466 55.6881 77.7741 55.1526 78.1186 54.5941L78.2073 54.4526C78.2926 54.3187 78.3745 54.181 78.4598 54.0472C78.6099 53.8062 78.6099 53.8062 78.7293 53.5652L78.8282 53.3931H78.9715L79.0329 53.2171C79.1182 52.9876 79.2103 52.7849 79.3365 52.5784H79.4832L79.6265 52.0888H79.7732L79.8312 51.9167C79.9267 51.6642 80.0427 51.4424 80.1723 51.209L80.3088 50.9681L80.4282 50.7845H80.5749L80.6192 50.6238C80.7557 50.2834 80.9467 49.9965 81.1412 49.6943L81.2572 49.5146C81.4039 49.2851 81.5506 49.0594 81.7007 48.8299C81.8405 48.6157 81.9531 48.4359 82.0282 48.1797H82.1749L82.2329 47.9999C82.3216 47.7627 82.4307 47.5753 82.5604 47.3649C82.6081 47.2884 82.6559 47.2119 82.7071 47.1354L82.8606 46.8906L83.1812 46.3781L83.3382 46.1295C83.5258 45.8311 83.71 45.529 83.8942 45.2268C86.0878 41.6504 86.0878 41.6504 87.4865 40.109L87.6196 39.9445C87.7833 39.78 87.9505 39.6615 88.1449 39.5467C88.2984 39.4511 88.452 39.3478 88.6055 39.2445C91.4302 37.3665 94.3504 37.5654 97.5367 37.5921Z" fill="url(#paint4_linear_1_233)"/>
<path d="M25.8784 111.594C26.0012 111.606 26.0012 111.606 26.1684 111.678C26.298 111.831 26.4208 111.992 26.5368 112.156C26.9189 112.684 27.3317 113.162 27.7684 113.633L27.6967 113.797C27.0178 113.158 26.339 112.451 25.8784 111.594Z" fill="#06070C"/>
<path d="M279.216 91.4361H279.49C279.793 91.4361 280.09 91.4361 280.387 91.4361H281.017C281.564 91.4361 282.111 91.4361 282.658 91.442C283.217 91.442 283.775 91.442 284.334 91.442C285.428 91.442 286.528 91.4478 287.622 91.4478C287.8 91.7693 287.877 91.9213 287.871 92.2954L287.83 92.6637L287.782 93.032L287.746 93.3184C287.122 93.523 286.468 93.4938 285.814 93.5113L285.321 93.5289C283.674 93.5756 282.022 93.5815 280.369 93.5815H279.965C279.579 93.5815 279.192 93.5815 278.812 93.5815H277.849C277.605 93.5639 277.605 93.5639 277.225 93.4412V92.9443L276.969 92.8215C276.957 92.5292 276.957 92.237 276.969 91.9447L277.225 91.5706C277.891 91.4536 278.538 91.4303 279.216 91.4361Z" fill="#233040"/>
<path d="M304.094 91.4186L304.456 91.4127H304.807L305.122 91.4186C305.455 91.4536 305.645 91.5121 305.925 91.6992C306.067 91.933 306.067 91.933 306.18 92.2194L306.305 92.5351L306.436 92.8741L306.572 93.219C306.834 93.8913 307.054 94.5635 307.226 95.265C307.327 95.5865 307.458 95.8554 307.619 96.1536C307.928 96.7264 308.136 97.311 308.338 97.9307C308.54 98.5386 308.742 99.1466 308.968 99.7487L309.051 100C309.259 100.555 309.527 100.9 309.979 101.292C310.228 101.228 310.228 101.228 310.49 101.041C310.627 100.731 310.745 100.421 310.847 100.099C310.906 99.9065 310.977 99.7077 311.043 99.5148L311.144 99.2167C311.304 98.7666 311.494 98.3282 311.685 97.8897C312.012 97.1239 312.297 96.3582 312.564 95.5748C312.868 94.698 313.212 93.8445 313.611 93.0027L313.747 92.7046C313.949 92.2896 314.14 91.9739 314.455 91.6349C314.8 91.4478 314.8 91.4478 315.251 91.3893L315.739 91.401L316.232 91.4069C316.684 91.4478 317.041 91.5296 317.463 91.6992C317.754 91.9739 317.849 92.2136 317.992 92.5936C318.14 93.2716 318.146 93.8913 318.033 94.5694C317.962 95.1247 317.95 95.6625 317.95 96.2179L317.944 96.5511C317.944 96.7791 317.944 97.0129 317.944 97.2409C317.944 97.5916 317.944 97.9365 317.938 98.2872V99.2693C317.938 99.9123 318.015 100.503 318.158 101.122C318.378 102.128 318.372 103.163 318.372 104.186L318.378 104.583C318.378 105.232 318.372 105.787 318.093 106.395C317.914 106.699 317.914 106.699 317.587 106.892C317.112 106.915 316.654 106.892 316.191 106.769C315.941 106.395 315.941 106.395 315.911 106.068V105.676L315.917 105.22V104.729C315.923 104.56 315.923 104.39 315.923 104.221C315.923 103.765 315.929 103.315 315.929 102.864C315.935 102.064 315.941 101.269 315.941 100.474L315.947 100.21C315.953 98.5328 315.899 96.8609 315.81 95.1832C315.376 95.5924 315.109 96.0016 314.853 96.5335C314.782 96.6797 314.704 96.8258 314.633 96.9778C314.425 97.4162 314.229 97.8547 314.039 98.2989L314.163 98.4217C314.169 98.6731 314.169 98.9244 314.163 99.1699L313.783 98.7958L313.712 99.0179C313.599 99.357 313.486 99.696 313.373 100.035L313.254 100.386C313.04 101.041 312.79 101.666 312.499 102.292C312.356 102.601 312.243 102.917 312.136 103.244C311.762 104.25 311.762 104.25 311.376 104.653C310.9 104.7 310.9 104.7 310.49 104.653V104.899C310.014 104.945 309.563 104.957 309.093 104.899C308.683 104.717 308.374 104.489 308.076 104.156C307.488 103.32 307.238 102.338 306.935 101.374C306.828 101.035 306.721 100.696 306.614 100.357L306.531 100.111C306.347 99.5441 306.139 98.9829 305.907 98.4334C305.752 98.0826 305.627 97.7202 305.497 97.3578C305.217 96.6563 304.896 96.0133 304.403 95.4345C304.236 95.3059 304.064 95.1773 303.892 95.0604L303.897 95.2826C303.903 96.1419 303.868 96.9895 303.802 97.8488C303.767 98.2989 303.767 98.7257 303.826 99.1758C303.909 99.8656 303.915 100.55 303.915 101.239V101.648C303.915 101.935 303.915 102.216 303.915 102.496C303.915 102.935 303.921 103.367 303.921 103.8C303.921 104.074 303.921 104.349 303.921 104.624L303.927 105.016C303.921 105.653 303.897 106.179 303.642 106.769C303.368 106.775 303.101 106.781 302.833 106.787L302.376 106.793L301.989 106.769L301.74 106.518C301.698 106.173 301.668 105.822 301.656 105.472L301.645 105.15C301.597 104.028 301.603 102.899 301.621 101.777C301.621 101.561 301.627 101.339 301.627 101.122C301.633 100.666 301.639 100.216 301.65 99.7603C301.656 99.1816 301.662 98.6087 301.668 98.03C301.674 97.5799 301.68 97.1298 301.686 96.6797C301.692 96.4692 301.692 96.2588 301.698 96.0425C301.74 92.4474 301.74 92.4474 302.12 91.6992C302.691 91.325 303.428 91.4127 304.094 91.4186Z" fill="#233040"/>
<path d="M176.806 91.4302H177.727L178.215 91.4244C178.56 91.4244 178.904 91.4244 179.249 91.4244C179.683 91.4244 180.123 91.4244 180.563 91.4244C180.979 91.4185 181.401 91.4185 181.823 91.4185H182.293C183.131 91.4185 183.886 91.4595 184.688 91.6991C184.837 91.9856 184.837 92.1668 184.843 92.4941V92.7806C184.813 93.0962 184.712 93.2892 184.563 93.5639L184.332 93.5697C183.523 93.5814 182.715 93.599 181.912 93.6107C181.609 93.6165 181.306 93.6224 181.009 93.6282C180.575 93.6341 180.141 93.6457 179.707 93.6516L179.303 93.6574C178.595 93.6691 177.906 93.6925 177.21 93.8153C176.83 94.0959 176.83 94.0959 176.574 94.4408C176.33 95.1539 176.402 95.9372 176.533 96.6738C176.598 96.9427 176.598 96.9427 176.699 97.1765C177.02 97.4571 177.252 97.5331 177.668 97.6208C178.185 97.6909 178.684 97.6968 179.208 97.6968L179.855 97.7085C180.194 97.7143 180.533 97.7143 180.872 97.7202C183.131 97.7319 183.131 97.7319 184.07 98.1352C184.492 98.4275 184.748 98.8075 185.003 99.2459C185.479 100.281 185.538 101.193 185.515 102.327V102.823C185.509 103.648 185.491 104.302 185.069 105.027L184.902 105.337L184.73 105.6L184.563 105.869C184.177 106.29 183.832 106.565 183.297 106.769C182.596 106.857 181.906 106.845 181.205 106.834C181.003 106.834 180.795 106.834 180.593 106.834C180.171 106.834 179.748 106.828 179.326 106.822C178.78 106.816 178.239 106.816 177.692 106.81C177.175 106.81 176.657 106.81 176.14 106.804H175.837C175.558 106.799 175.278 106.799 174.999 106.793L174.517 106.787L174.167 106.769L174.036 106.647C174.03 106.331 174.024 106.015 174.03 105.705V105.436C174.03 105.214 174.036 104.998 174.036 104.776C174.791 104.519 175.463 104.501 176.259 104.519C177.442 104.53 178.625 104.53 179.808 104.501C179.98 104.501 180.153 104.495 180.325 104.495C181.419 104.501 181.419 104.501 182.447 104.197L182.786 103.905C182.923 103.554 182.923 103.554 182.917 103.157L182.935 102.736C182.988 101.596 182.988 101.596 182.661 100.544C181.894 100.152 181.092 100.111 180.248 100.111L179.891 100.105C179.517 100.105 179.148 100.099 178.78 100.099C178.405 100.094 178.031 100.094 177.662 100.088C177.43 100.082 177.198 100.082 176.966 100.082C176.324 100.076 175.784 100.012 175.177 99.7954C174.672 99.3511 174.494 98.7666 174.268 98.1528C174.018 97.3227 174.012 96.516 174.006 95.6625L174 95.2884C173.994 94.318 174.119 93.3885 174.577 92.5117C174.832 92.0849 175.011 91.8511 175.433 91.5705C175.896 91.4536 176.33 91.4302 176.806 91.4302Z" fill="#233040"/>
<path d="M335.415 91.401C335.593 91.401 335.772 91.401 335.95 91.401C336.325 91.401 336.699 91.4069 337.068 91.4069C337.543 91.4069 338.025 91.4069 338.5 91.4069C338.869 91.4069 339.237 91.4069 339.606 91.4127C339.778 91.4127 339.957 91.4127 340.129 91.4127C340.379 91.4127 340.622 91.4127 340.866 91.4127L341.288 91.4186C341.71 91.4536 342.055 91.5472 342.441 91.6992L342.572 91.8219C342.602 92.1785 342.62 92.4708 342.572 92.8215C342.334 93.184 342.334 93.184 342.061 93.4412C341.746 93.599 341.526 93.5815 341.175 93.5873L340.771 93.5932L340.337 93.599L339.427 93.6107C338.952 93.6165 338.47 93.6224 337.995 93.6282C337.531 93.6282 337.074 93.6341 336.61 93.6458H336.176L335.772 93.6516L335.421 93.6575C335.052 93.6925 334.785 93.7861 334.452 93.938C334.208 94.1953 334.089 94.3706 334 94.7097C333.923 95.5164 333.976 96.2705 334.202 97.0538L334.452 97.4279C335.112 97.7319 335.766 97.7144 336.479 97.7202L336.848 97.726C337.228 97.7319 337.614 97.7377 337.995 97.7377C338.506 97.7436 339.011 97.7494 339.517 97.7611H339.861C340.515 97.7728 341.068 97.8313 341.68 98.0476C341.984 98.3048 341.984 98.3048 342.227 98.5971L342.483 98.8835C342.685 99.1582 342.828 99.357 342.953 99.6727C342.976 100.006 342.988 100.327 342.988 100.666V100.959C342.994 101.163 342.994 101.362 342.988 101.567C342.988 101.876 342.994 102.186 342.994 102.496C343 102.695 343 102.894 342.994 103.092L343 103.373C342.994 104.039 342.846 104.536 342.572 105.15C342.358 105.477 342.358 105.477 342.132 105.752L341.912 106.027C341.68 106.272 341.466 106.465 341.175 106.647C340.628 106.81 340.075 106.816 339.505 106.839L339.142 106.857C338.001 106.898 336.865 106.91 335.724 106.91H335.457C334.274 106.915 333.097 106.869 331.92 106.769C331.842 106.319 331.771 105.887 331.765 105.431V105.144L331.789 104.899L332.045 104.653C332.77 104.495 333.525 104.519 334.262 104.53C335.26 104.536 336.253 104.519 337.252 104.484C337.383 104.478 337.513 104.472 337.65 104.472C338.863 104.437 338.863 104.437 340.034 104.156C340.301 103.864 340.414 103.659 340.539 103.279C340.569 102.87 340.563 102.449 340.563 102.034L340.569 101.689V101.356L340.575 101.058C340.557 100.754 340.557 100.754 340.289 100.415C338.803 100.076 337.21 100.123 335.694 100.111C333.661 100.094 333.661 100.094 332.681 99.6727C332.371 99.4681 332.371 99.4681 332.169 99.1699C331.943 98.4392 331.884 97.726 331.89 96.9661V96.668C331.89 96.4634 331.89 96.2588 331.89 96.0542C331.896 95.7444 331.896 95.4287 331.896 95.1189C331.896 94.9201 331.896 94.7214 331.896 94.5226V94.2362C331.902 94.014 331.908 93.7861 331.92 93.5639L332.045 93.4412L332.092 92.9735C332.134 92.6462 332.187 92.4065 332.306 92.0967C332.585 91.7868 332.841 91.6641 333.233 91.5238C333.947 91.3601 334.684 91.3952 335.415 91.401Z" fill="#233040"/>
<path d="M231.495 91.4302C231.792 91.4302 232.089 91.4302 232.386 91.4302C233.373 91.4302 234.36 91.4478 235.347 91.4887L235.62 91.4945C235.876 91.5121 235.876 91.5121 236.304 91.5705C236.553 91.7459 236.553 91.7459 236.684 91.9446C236.708 92.2135 236.708 92.2135 236.666 92.5058L236.637 92.7981C236.553 93.067 236.553 93.067 236.393 93.2833C236.137 93.4704 235.977 93.5054 235.668 93.5639C235.436 93.5756 235.21 93.5814 234.978 93.5814H234.11C233.795 93.5873 233.48 93.5873 233.171 93.5931C232.672 93.5931 232.178 93.599 231.685 93.599C231.203 93.599 230.728 93.6048 230.252 93.6048H229.801C229.42 93.6106 229.069 93.6223 228.695 93.6925C228.326 93.9439 228.326 93.9439 228.184 94.3121C228.112 94.5869 228.112 94.5869 228.13 94.8616V95.1656L228.136 95.4813L228.142 95.7911C228.148 96.4224 228.237 96.9544 228.439 97.5506C229.129 97.6909 229.795 97.6968 230.49 97.7085L231.251 97.7202C231.649 97.726 232.048 97.7318 232.446 97.7377C232.826 97.7435 233.213 97.7494 233.599 97.7552H233.956C234.615 97.7669 235.174 97.8254 235.792 98.0475C236.256 98.3515 236.512 98.5853 236.767 99.0705C236.964 99.5557 236.987 100.018 236.981 100.538V100.818C236.981 101.011 236.981 101.204 236.981 101.397C236.975 101.689 236.975 101.982 236.975 102.28C236.975 104.729 236.975 104.729 236.524 105.571C236.238 106.015 235.905 106.325 235.436 106.576C233.575 107.225 231.197 106.886 229.254 106.839L228.35 106.822C227.619 106.804 226.888 106.787 226.157 106.769C226.026 106.383 226.014 106.115 226.014 105.711V105.349C226.032 105.027 226.032 105.027 226.157 104.653C227.185 104.554 228.201 104.519 229.23 104.53C230.324 104.53 231.417 104.519 232.505 104.489L232.933 104.478L233.337 104.466L233.688 104.454C234.092 104.39 234.33 104.267 234.651 104.028C234.841 103.759 234.901 103.578 234.942 103.256C234.948 102.934 234.948 102.613 234.948 102.291L234.954 101.958C234.954 101.496 234.925 101.105 234.794 100.666C234.55 100.403 234.55 100.403 234.265 100.339C233.516 100.199 232.796 100.129 232.03 100.123L231.691 100.117C231.34 100.105 230.989 100.105 230.633 100.099C230.282 100.094 229.931 100.088 229.575 100.082C229.355 100.076 229.141 100.07 228.921 100.07C228.326 100.058 227.756 100.029 227.173 99.9181C226.929 99.7428 226.929 99.7428 226.751 99.5206L226.573 99.3043C226.275 98.8308 226.145 98.3515 226.121 97.802C226.115 97.6091 226.115 97.422 226.115 97.235V96.931C226.109 96.7147 226.109 96.5043 226.109 96.288C226.109 95.9665 226.103 95.6449 226.103 95.3234C226.085 93.4528 226.085 93.4528 226.531 92.5467C226.715 92.2311 226.917 91.9563 227.173 91.6991C228.285 91.1496 230.258 91.4302 231.495 91.4302Z" fill="#233040"/>
<path d="M279.537 97.7846H279.799C280.078 97.7787 280.364 97.7787 280.643 97.7787H281.232C281.648 97.7787 282.058 97.7787 282.468 97.7787C282.997 97.7787 283.526 97.7787 284.055 97.7729C284.459 97.7729 284.864 97.7729 285.274 97.7729C285.464 97.7729 285.66 97.7729 285.856 97.7729C286.13 97.7729 286.397 97.7729 286.671 97.7729H287.14C287.533 97.8021 287.533 97.8021 288.044 98.0476V99.9182C287.182 100.339 285.922 100.181 284.983 100.17L284.198 100.164C283.788 100.158 283.378 100.152 282.967 100.146C282.569 100.14 282.171 100.14 281.773 100.135L281.404 100.129C280.685 100.129 280.179 100.199 279.543 100.544C279.347 100.754 279.347 100.754 279.294 101.041C279.258 101.421 279.258 101.421 279.276 101.818L279.282 102.227L279.294 102.537H279.543V101.537L279.924 101.415L279.912 101.882C279.906 102.216 279.924 102.408 280.055 102.724L280.179 102.911L279.674 103.034C279.971 103.35 280.138 103.519 280.56 103.654C280.792 103.671 281.018 103.683 281.249 103.689L281.677 103.706L282.141 103.718L282.617 103.735C283.199 103.753 283.788 103.771 284.376 103.788C284.947 103.806 285.523 103.823 286.094 103.841L286.558 103.858L286.986 103.87L287.366 103.882C287.663 103.905 287.663 103.905 287.913 104.028V106.647C287.402 106.728 286.986 106.787 286.481 106.793L286.094 106.799H285.678L285.244 106.804C284.941 106.804 284.644 106.804 284.341 106.804C284.037 106.81 283.728 106.81 283.419 106.816C282.973 106.822 282.533 106.822 282.088 106.822L281.677 106.828C280.816 106.828 280.168 106.693 279.419 106.272C279.05 106.027 279.05 106.027 278.747 105.781L278.438 105.536C278.016 105.15 277.701 104.799 277.493 104.262C277.267 103.209 277.249 102.163 277.249 101.093L277.243 100.766C277.249 99.2226 277.249 99.2226 277.392 98.5503C277.677 98.1645 277.677 98.1645 278.022 97.9249C278.527 97.7904 279.014 97.7846 279.537 97.7846Z" fill="#233040"/>
<path d="M200.542 91.4127C200.798 91.4478 200.798 91.4478 201.184 91.6115C202.2 92.5234 202.747 93.8738 203.342 95.0721C203.942 96.288 204.578 97.4806 205.232 98.6731C205.607 98.6906 205.791 98.6965 206.118 98.5503C206.439 98.1528 206.647 97.7144 206.867 97.2584L207.051 96.8901C207.271 96.4517 207.485 96.025 207.64 95.5573H208.02L207.996 95.2241C208.02 94.8091 208.02 94.8091 208.198 94.4525L208.4 94.1894H208.656L208.692 93.8562C208.793 93.4061 208.947 93.1255 209.203 92.7397L209.435 92.3948C209.661 92.085 209.881 91.8219 210.178 91.5706C210.653 91.477 210.653 91.477 211.064 91.4478L210.939 91.8219L211.182 92.0265C211.444 92.3188 211.444 92.3188 211.575 92.6813V93.0671C211.373 93.3886 211.373 93.3886 211.236 93.5698C210.844 94.1427 210.594 94.8091 210.303 95.4346L210.178 95.6859H209.922V95.3118L209.797 95.8087H210.053C210.029 96.0717 210.029 96.0717 209.922 96.4283L209.649 96.7323C209.149 97.2993 208.87 97.9833 208.555 98.6555L208.359 99.0589C208.204 99.3862 208.05 99.7136 207.895 100.041H207.64L207.61 100.339C207.509 100.836 207.33 101.263 207.128 101.73C206.903 102.303 206.867 102.847 206.861 103.455L206.849 103.917C206.843 104.238 206.843 104.554 206.837 104.869C206.813 106.015 206.813 106.015 206.635 106.424C206.498 106.629 206.498 106.629 206.249 106.892C205.999 106.88 205.755 106.863 205.512 106.845C205.375 106.839 205.238 106.828 205.095 106.822C204.727 106.769 204.727 106.769 204.346 106.518C204.305 106.196 204.287 105.875 204.287 105.548V105.249C204.281 104.94 204.275 104.63 204.275 104.32C204.269 104.01 204.269 103.7 204.263 103.391C204.257 103.198 204.257 103.005 204.257 102.812C204.245 102.017 204.085 101.321 203.681 100.626L203.508 100.322L203.324 99.9942C202.634 98.7841 201.981 97.5565 201.333 96.3231L201.196 96.0659C200.982 95.6509 200.762 95.2358 200.548 94.8149C200.37 94.4642 200.185 94.1134 199.995 93.7685L199.716 93.2307L199.579 92.9794C199.395 92.6286 199.276 92.3481 199.246 91.9505L199.276 91.6992C199.674 91.4361 200.06 91.3952 200.542 91.4127Z" fill="#233040"/>
<path d="M261.817 91.4419C262.334 91.436 262.721 91.4594 263.184 91.6991L263.315 91.8219C263.339 92.2603 263.339 92.6227 263.202 93.0436C263.06 93.3184 263.06 93.3184 262.804 93.5639C262.12 93.71 261.401 93.6983 260.706 93.6925C260.04 93.6866 259.404 93.6983 258.75 93.8152C258.524 93.9672 258.524 93.9672 258.369 94.1894C258.251 94.5518 258.227 94.8791 258.227 95.2533V95.5982L258.233 95.9664C258.233 96.2353 258.233 96.5042 258.239 96.7673V97.194C258.251 99.4037 258.251 101.613 258.203 103.823C258.197 104.045 258.191 104.273 258.185 104.501C258.179 104.817 258.173 105.127 258.167 105.442L258.161 105.723C258.155 105.945 258.138 106.173 258.114 106.395L257.858 106.769C257.567 106.81 257.567 106.81 257.228 106.798C257.115 106.798 257.002 106.798 256.883 106.793C256.592 106.769 256.592 106.769 256.336 106.646C256.17 106.155 256.2 105.688 256.2 105.179V104.84C256.206 104.601 256.206 104.355 256.206 104.115C256.206 103.729 256.212 103.344 256.212 102.958C256.212 101.865 256.218 100.777 256.224 99.6843C256.229 99.012 256.229 98.3456 256.229 97.6792C256.229 97.422 256.235 97.1707 256.235 96.9134C256.235 96.5569 256.235 96.2003 256.241 95.8437V95.528C256.241 94.9084 256.158 94.3998 255.956 93.8152C255.373 93.7217 254.785 93.6749 254.191 93.6691L253.703 93.6574C253.453 93.6574 253.198 93.6516 252.942 93.6516C252.698 93.6457 252.449 93.6457 252.205 93.6399L251.759 93.634L251.391 93.5639C251.159 93.33 251.159 93.33 251.01 93.067C250.939 92.7572 250.939 92.7572 250.909 92.4298L250.874 92.1025L250.885 91.8219L251.141 91.5705C251.462 91.5471 251.783 91.5354 252.104 91.5354L252.407 91.5296C252.74 91.5237 253.073 91.5237 253.406 91.5237C253.632 91.5179 253.864 91.5179 254.095 91.512C254.702 91.5062 255.308 91.5003 255.92 91.5003C256.533 91.4945 257.151 91.4887 257.763 91.4828C258.667 91.4711 259.57 91.4653 260.474 91.4536H260.753C260.931 91.4536 261.104 91.4536 261.282 91.4477C261.461 91.4477 261.639 91.4477 261.817 91.4419Z" fill="#233040"/>
<path d="M335.754 93.5522H337.02C337.49 93.5522 337.953 93.5581 338.417 93.5581C338.732 93.5581 339.047 93.5581 339.362 93.5581C340.135 93.5639 340.908 93.5639 341.68 93.5639V93.8153L342.192 94.0666V94.1894C341.77 94.2829 341.348 94.3297 340.914 94.3297L340.539 94.3355H339.719C339.427 94.3355 339.136 94.3355 338.851 94.3355C338.405 94.3355 337.959 94.3414 337.519 94.3414C337.234 94.3414 336.949 94.3414 336.669 94.3414L336.265 94.3472C335.57 94.3414 334.987 94.2946 334.327 94.0666L334.583 93.6925C334.969 93.5464 335.344 93.5522 335.754 93.5522Z" fill="#233040"/>
<path d="M254.88 93.9206C255.147 93.9031 255.147 93.9031 255.575 93.9381C255.789 94.1252 255.789 94.1252 255.956 94.4409C255.992 94.7974 256.003 95.1306 256.003 95.4872V95.8087C256.003 96.1595 255.998 96.5102 255.998 96.8551C255.992 97.1006 255.992 97.3403 255.992 97.5858C255.992 98.223 255.986 98.8602 255.986 99.4974C255.98 100.146 255.98 100.795 255.974 101.45C255.974 102.724 255.968 103.999 255.956 105.273L255.706 105.401C255.498 104.998 255.564 104.56 255.564 104.115V103.794C255.564 103.437 255.564 103.081 255.564 102.73V101.993C255.564 101.345 255.57 100.702 255.57 100.053C255.57 99.3921 255.57 98.7316 255.57 98.071C255.575 96.7791 255.575 95.4814 255.575 94.1895L255.225 94.2479C254.803 94.3181 254.416 94.3298 253.994 94.3239H253.055L252.574 94.3181C252.181 94.3181 251.789 94.3181 251.391 94.3123V94.0667C251.902 94.0434 252.407 94.02 252.912 94.0024L253.346 93.9849C253.626 93.9732 253.905 93.9615 254.185 93.9557C254.416 93.944 254.648 93.9323 254.88 93.9206Z" fill="#233040"/>
<mask id="mask0_1_233" style="mask-type:luminance" maskUnits="userSpaceOnUse" x="279" y="105" width="9" height="3">
<path d="M279.799 105.647H287.408V107.395H279.799V105.647Z" fill="white"/>
</mask>
<g mask="url(#mask0_1_233)">
<path d="M285.886 106.892V107.021L284.24 107.143L287.408 107.266V107.395H280.685V107.266L282.337 107.143V106.892C283.485 106.711 284.751 106.623 285.886 106.892Z" fill="#233040"/>
</g>
<path d="M342.061 93.9381L342.192 94.1894C341.752 94.2888 341.348 94.3297 340.902 94.3297H340.515L340.105 94.3239H339.683C339.237 94.3239 338.791 94.3239 338.346 94.3239C338.042 94.3181 337.739 94.3181 337.436 94.3181C336.699 94.3181 335.956 94.3181 335.213 94.3122V94.0667C337.501 93.979 339.778 93.9205 342.061 93.9381Z" fill="#233040"/>
<path d="M279.674 101.415H279.924L279.912 101.882C279.906 102.215 279.924 102.408 280.055 102.724L280.179 102.911L279.799 103.034L279.543 102.911C279.543 102.683 279.537 102.455 279.537 102.233L279.531 101.847L279.543 101.537L279.674 101.415Z" fill="#233040"/>
<path d="M207.64 95.5573H208.02C207.955 96.1302 207.794 96.5511 207.515 97.0538H207.259C207.301 96.8726 207.342 96.6972 207.378 96.516L207.449 96.212C207.515 95.9315 207.515 95.9315 207.64 95.5573Z" fill="#233040"/>
<path d="M185.449 99.5441C185.651 99.7019 185.651 99.7019 185.83 99.9182C185.794 100.193 185.794 100.193 185.705 100.415H185.324C185.247 100.193 185.247 100.193 185.199 99.9182L185.449 99.5441Z" fill="#233040"/>
<path d="M223.238 75.1384C224.545 76.062 225.241 77.5877 225.901 78.9848L226.085 79.3589C226.204 79.6103 226.329 79.8617 226.448 80.1189C226.614 80.4696 226.786 80.8203 226.953 81.1711L227.256 81.7966L227.399 82.083C227.524 82.3402 227.642 82.5974 227.767 82.8546L227.88 83.0943C228.076 83.5152 228.195 83.8601 228.177 84.3278C228.177 84.4154 228.171 84.509 228.171 84.6083C228.148 84.848 228.148 84.848 228.017 85.0935C227.577 85.2397 227.226 85.2338 226.757 85.2397H226.483C226.18 85.2397 225.877 85.2397 225.568 85.2397H224.92C224.325 85.2397 223.737 85.2397 223.142 85.2397C222.649 85.2397 222.156 85.2397 221.662 85.2397C220.497 85.2455 219.332 85.2455 218.173 85.2455C216.972 85.2455 215.765 85.2455 214.565 85.2455C213.536 85.2455 212.502 85.2514 211.474 85.2514C210.855 85.2514 210.243 85.2514 209.625 85.2514C209.048 85.2514 208.466 85.2514 207.889 85.2514C207.675 85.2514 207.461 85.2514 207.247 85.2514C206.962 85.2514 206.67 85.2514 206.379 85.2514H205.886C205.446 85.2221 205.095 85.1286 204.685 84.9708C204.59 83.977 204.923 83.0534 205.339 82.1649C205.702 81.4283 206.076 80.7093 206.462 79.9903L206.587 80.3644C206.492 80.645 206.492 80.645 206.344 80.949L206.195 81.2529L206.082 81.4809C206.385 81.1185 206.569 80.7677 206.742 80.3293L206.873 79.9961L206.968 79.7389H206.712C206.896 78.9556 207.247 78.3184 207.657 77.6286C207.723 77.5234 207.782 77.4123 207.847 77.3013L208.032 76.9856L208.198 76.705L208.365 76.5004H208.745L208.995 75.6294H209.375V75.2553C212.597 74.016 219.968 74.1095 223.238 75.1384Z" fill="#233040"/>
<path d="M186.043 83.2288H186.299L186.246 83.4919L186.174 83.8367L186.103 84.1758C186.037 84.4622 186.037 84.4622 186.043 84.7194H186.935V84.4739H187.262C189.271 84.4856 191.28 84.4856 193.29 84.4447C193.474 84.4447 193.658 84.4389 193.837 84.4389C194.092 84.4389 194.348 84.433 194.603 84.4213L195.043 84.4155C195.448 84.3745 195.448 84.3745 195.786 84.1115C196.048 83.866 196.185 83.6789 196.315 83.3516L196.571 83.4743L196.191 84.2226L196.078 84.4973C195.935 84.7194 195.935 84.7194 195.644 84.9299C195.031 85.228 194.461 85.2339 193.783 85.2339L193.522 85.2397C193.242 85.2397 192.957 85.2397 192.671 85.2397C192.475 85.2397 192.279 85.2397 192.083 85.2397C191.667 85.2397 191.257 85.2397 190.841 85.2339C190.312 85.2339 189.782 85.2339 189.253 85.2397C188.843 85.2397 188.439 85.2397 188.029 85.2397C187.833 85.2397 187.637 85.2397 187.44 85.2397C187.173 85.2397 186.899 85.2397 186.626 85.2339H186.156C185.794 85.2222 185.794 85.2222 185.538 85.0936C185.419 84.7837 185.419 84.7837 185.413 84.3512C185.586 83.9537 185.806 83.5912 186.043 83.2288Z" fill="#233040"/>
<path d="M240.952 76.5004C241.19 76.5413 241.19 76.5413 241.463 76.6232L241.713 76.9973V77.3714H241.969L242.117 77.6579C242.307 78.0086 242.492 78.3652 242.676 78.7218C242.759 78.8738 242.836 79.0258 242.92 79.1777C243.033 79.3999 243.151 79.622 243.27 79.8442L243.389 80.0663C243.585 80.4404 243.788 80.8087 243.99 81.177L244.227 81.6037L244.441 81.9837C244.703 82.4922 244.881 83.0184 245.048 83.5678C245.113 83.8426 245.113 83.8426 245.268 83.977C245.321 84.3044 245.357 84.6376 245.393 84.9708L245.422 84.5499L245.517 84.0998L246.029 83.8484V85.2222C245.398 85.2222 244.768 85.228 244.138 85.228C243.924 85.228 243.71 85.228 243.496 85.228C243.187 85.2339 242.878 85.2339 242.569 85.2339H242.278C242.052 85.2339 241.82 85.228 241.588 85.2222L241.463 85.0936C241.101 85.0643 240.738 85.041 240.375 85.0234L240.066 85.0117C239.811 84.9942 239.561 84.9825 239.305 84.9708V84.848L244.887 84.7194C244.703 83.9946 244.519 83.4334 244.174 82.7845L244.037 82.5273C243.948 82.3519 243.853 82.1766 243.758 82.0012C243.615 81.7323 243.478 81.4634 243.336 81.1945C243.247 81.0191 243.157 80.8496 243.068 80.6801L242.943 80.4404C242.842 80.2417 242.723 80.0546 242.605 79.8617L242.224 79.7389L242.254 79.4174C242.212 78.8621 242.01 78.5932 241.713 78.1197V77.8683H241.332L241.285 77.5351C241.214 77.161 241.113 76.8512 240.952 76.5004Z" fill="#233040"/>
<path d="M280.138 70.8945C280.506 70.912 280.506 70.912 280.774 71.0173L280.512 71.2686C280.066 71.7129 279.638 72.1689 279.204 72.6248C278.432 73.4315 277.647 74.2207 276.85 74.9982C276.363 75.4717 275.899 75.951 275.471 76.4713L275.323 76.6233H275.067C274.93 76.8688 274.817 77.1085 274.734 77.3715L274.645 77.6463L274.568 77.9093L274.431 78.1198C274.223 78.1665 274.009 78.2074 273.801 78.2425C273.581 78.4179 273.581 78.4179 273.403 78.6576L273.177 78.9265L272.909 79.2421C271.518 80.8555 271.518 80.8555 270.502 81.2355C271.06 80.043 272.255 79.1311 273.189 78.225C273.367 78.0555 273.539 77.8801 273.718 77.7106L274.033 77.4066C274.306 77.1318 274.306 77.1318 274.514 76.8396L274.687 76.6233H274.942L275.031 76.4128C275.281 75.9686 275.644 75.6412 275.994 75.2846L276.208 75.004V74.5071L276.494 74.4194C276.91 74.2265 277.064 73.9869 277.35 73.6361L277.617 73.5835L277.855 73.5134L277.974 73.1626C278.111 72.7651 278.111 72.7651 278.402 72.5079L278.747 72.2682C279.026 71.9935 279.305 71.7246 279.567 71.4323C279.757 71.2219 279.757 71.2219 280.138 70.8945Z" fill="#233040"/>
<path d="M273.801 77.6228L274.051 77.7456C273.777 78.3418 273.355 78.7627 272.909 79.2421C272.802 79.3648 272.689 79.4934 272.576 79.622C271.952 80.3235 271.411 80.8964 270.502 81.2354C270.983 80.2007 271.964 79.4057 272.778 78.6166L273.076 78.3243C273.319 78.0905 273.557 77.8566 273.801 77.6228Z" fill="#233040"/>
<path d="M237.784 70.7717H238.289C238.461 71.0932 238.628 71.4206 238.8 71.7421L238.943 72.0227L239.086 72.2916L239.21 72.5371C239.305 72.7651 239.305 72.7651 239.305 73.1392C239.424 73.4081 239.424 73.4081 239.561 73.6361L239.181 73.5133C239.014 73.2853 239.014 73.2853 238.86 72.9989L238.699 72.6891C238.568 72.4377 238.449 72.1805 238.337 71.9174C238.188 71.5667 238.021 71.3153 237.784 71.0172V70.7717Z" fill="#233040"/>
<path d="M318.818 82.2292H318.943L318.972 82.4571C319.014 82.7903 319.056 83.1235 319.103 83.4626L319.145 83.8133L319.192 84.1524L319.234 84.4622L319.323 84.7194C319.573 84.8889 319.573 84.8889 319.828 84.9708L319.068 85.0935C318.806 84.4564 318.788 83.9186 318.8 83.2405L318.806 82.9482C318.806 82.7085 318.812 82.4688 318.818 82.2292Z" fill="#233040"/>
<path d="M245.773 83.8485H246.028V85.2222H245.268C245.303 85.041 245.339 84.8539 245.375 84.6727L245.44 84.3687C245.517 84.0998 245.517 84.0998 245.773 83.8485Z" fill="#233040"/>
<path d="M206.587 79.7389H206.968C206.914 80.4696 206.581 80.9957 206.207 81.6095L205.957 81.3581L206.058 81.1652C206.308 80.6917 206.522 80.2767 206.587 79.7389Z" fill="#233040"/>
<path d="M231.572 79.2421H231.822C232.041 79.5577 232.041 79.5577 232.285 79.9728L232.529 80.382C232.713 80.7386 232.713 80.7386 232.713 80.9841L232.333 80.8613C232.131 80.5574 232.131 80.5574 231.929 80.1832L231.726 79.8091C231.572 79.4876 231.572 79.4876 231.572 79.2421ZM190.74 74.5071H190.989C190.93 75.1501 190.585 75.6061 190.228 76.1263L189.979 75.8808L190.74 74.5071Z" fill="#233040"/>
<path d="M240.952 76.5004C241.19 76.5413 241.19 76.5413 241.463 76.6232L241.713 76.9973C241.731 77.3364 241.731 77.3364 241.713 77.6228H241.463C241.065 76.9622 241.065 76.9622 240.952 76.7518V76.5004Z" fill="#233040"/>
<path d="M267.458 70.649H267.714C267.536 71.0465 267.339 71.2745 267.001 71.5492L266.757 71.748L266.573 71.8941V71.52C266.757 71.292 266.757 71.292 267.001 71.0582L267.238 70.8243L267.458 70.649Z" fill="#233040"/>
<path d="M188.076 79.3648H188.326C188.249 79.8792 188.07 80.2768 187.821 80.7386H187.565C187.642 80.2241 187.827 79.8208 188.076 79.3648Z" fill="#233040"/>
<path d="M187.185 81.2355H187.44C187.304 81.6563 187.185 81.9837 186.935 82.3578H186.679C186.81 81.9311 186.935 81.6037 187.185 81.2355Z" fill="#233040"/>
<path d="M212.531 41.0116H212.846C213.185 41.0116 213.518 41.0116 213.857 41.0116H214.564C215.057 41.0058 215.551 41.0058 216.044 41.0058C216.674 41.0058 217.304 41.0058 217.934 41.0058C218.422 40.9999 218.909 40.9999 219.397 40.9999C219.629 40.9999 219.86 40.9999 220.092 40.9999C220.419 40.9999 220.746 40.9999 221.067 40.9999C221.162 40.9999 221.257 40.9999 221.358 40.9999C221.953 40.9999 222.464 41.0817 223.023 41.2805C223.671 41.8826 224.033 42.6718 224.444 43.4376C224.943 44.367 225.454 45.2848 226.001 46.185C226.37 46.7871 226.72 47.3951 227.035 48.0264C227.279 48.5233 227.541 49.0143 227.802 49.4995L227.969 49.8093C228.403 50.616 228.854 51.4169 229.312 52.2119C229.568 52.6562 229.8 53.1004 230.008 53.5681C230.21 54.0299 230.447 54.445 230.727 54.8658C231.095 55.4387 231.434 56.0291 231.737 56.6429C231.868 56.9118 232.005 57.1807 232.142 57.4438C232.373 57.9056 232.611 58.3616 232.855 58.8175L232.998 59.0981C233.146 59.3729 233.289 59.6534 233.438 59.934C233.77 60.5654 234.103 61.2026 234.436 61.8397C234.519 61.9976 234.603 62.1554 234.686 62.3132C234.793 62.5178 234.9 62.7224 235.007 62.9329L235.185 63.2719C235.369 63.6753 235.429 64.0143 235.453 64.4469L235.833 64.5755C235.976 64.7684 235.976 64.7684 236.118 65.0373L236.285 65.3413L236.463 65.692L236.671 66.0837C236.861 66.4403 237.052 66.8027 237.242 67.1651C237.878 68.3869 238.52 69.6028 239.192 70.8011L239.382 71.1402C239.596 71.5319 239.822 71.9235 240.042 72.3152C240.173 72.5432 240.297 72.777 240.428 73.005L240.636 73.3732C240.779 73.6655 240.779 73.6655 240.779 74.0396L240.999 74.2501C241.379 74.6359 241.575 75.0626 241.807 75.542C241.896 75.7232 241.98 75.8986 242.069 76.0798L242.188 76.3136C242.313 76.565 242.313 76.565 242.55 76.904V77.2781H242.806L242.955 77.5646C243.145 77.9153 243.329 78.2719 243.513 78.6285C243.597 78.7805 243.674 78.9325 243.757 79.0845C243.87 79.3066 243.989 79.5287 244.108 79.7509L244.227 79.973C244.423 80.3471 244.625 80.7154 244.827 81.0837L245.065 81.5104L245.279 81.8904C245.54 82.399 245.719 82.9251 245.885 83.4746C245.951 83.7493 245.951 83.7493 246.105 83.8838C246.159 84.2111 246.194 84.5443 246.23 84.8775L246.26 84.4566L246.355 84.0065L246.866 83.7552V85.1289H236.338V84.7548L235.578 84.5034L236.214 84.8775C235.988 84.9711 235.988 84.9711 235.702 85.0003C235.179 84.5852 234.87 84.0182 234.531 83.4629L234.347 83.1589C234.163 82.8608 233.984 82.5626 233.8 82.2645L233.657 82.019C232.92 80.7972 232.272 79.5346 231.642 78.2544L231.506 77.9913L231.387 77.7458C231.256 77.5003 231.256 77.5003 231.018 77.1846C230.78 76.8163 230.632 76.4831 230.465 76.0798C230.132 75.2672 229.704 74.5365 229.235 73.7941C228.961 73.3499 228.712 72.8997 228.468 72.4438L228.242 72.017L228.01 71.5728L227.885 71.3448C227.315 70.2516 226.744 69.1585 226.191 68.0537C225.466 66.6273 224.735 65.2068 223.992 63.7863L223.849 63.5174C223.255 62.3834 222.654 61.2493 222.042 60.1211C221.668 59.4196 221.305 58.7123 220.954 58.005C220.776 57.6425 220.586 57.3093 220.36 56.9761C220.08 56.5611 219.89 56.1344 219.7 55.6725C219.367 54.8951 218.975 54.1761 218.523 53.457C218.083 52.7614 217.697 52.0424 217.316 51.3117C217.013 50.7271 217.013 50.7271 216.555 50.2478C216.163 50.1601 216.163 50.1601 215.794 50.125L215.569 50.5225C215.361 50.8908 215.152 51.2532 214.944 51.6156L214.802 51.867C214.653 52.1242 214.493 52.3697 214.326 52.6153C214.053 53.042 213.821 53.4921 213.589 53.9481L213.316 54.4859L213.167 54.784C212.662 55.7895 212.151 56.7891 211.645 57.7887L211.229 58.6071C210.361 60.314 209.482 62.0151 208.566 63.7045L208.257 64.2774L208.114 64.5346C207.722 65.2653 207.33 66.0018 206.955 66.7442C206.491 67.6679 206.004 68.5798 205.511 69.4859L205.285 69.9009C204.898 70.6024 204.5 71.2688 204.042 71.9235C203.805 72.2801 203.62 72.6484 203.43 73.0283C202.96 73.9753 202.473 74.9048 201.98 75.8401L201.861 76.0622C201.355 77.0151 200.85 77.9738 200.333 78.9208C200.06 79.4235 199.804 79.9262 199.548 80.429C199.103 81.3292 198.615 82.1768 198.044 83.0069L197.819 83.346C197.397 83.9598 197.022 84.4683 196.392 84.8775C195.78 85.0821 195.245 85.1581 194.597 85.1581H194.335C194.05 85.1581 193.77 85.1581 193.485 85.1581H192.897C192.48 85.1581 192.07 85.1523 191.66 85.1523C191.131 85.1523 190.602 85.1523 190.073 85.1523C189.669 85.1523 189.265 85.1523 188.854 85.1464C188.664 85.1464 188.468 85.1464 188.272 85.1464C187.998 85.1464 187.731 85.1464 187.457 85.1464H186.988C186.631 85.1289 186.631 85.1289 186.376 85.0003C186.263 84.6963 186.263 84.6963 186.251 84.2579C186.477 83.3167 187.047 82.475 187.529 81.639C187.88 81.0252 188.218 80.3997 188.539 79.7626C188.938 78.9734 189.348 78.1901 189.77 77.4126C190.043 76.9157 190.299 76.4188 190.554 75.9161C190.905 75.2146 191.298 74.5307 191.69 73.8467C192.207 72.9348 192.7 72.0054 193.188 71.0817C193.61 70.275 194.044 69.48 194.49 68.685C194.62 68.9364 194.62 68.9364 194.62 69.3047L196.267 66.1948C195.91 66.5396 195.756 66.7793 195.548 67.2119C195.488 67.323 195.435 67.4399 195.375 67.551L195.251 67.814L195.126 67.4399C195.268 67.1184 195.268 67.1184 195.482 66.7559L195.69 66.3935C195.833 66.1538 195.982 65.9259 196.142 65.692L196.523 65.5693L196.772 65.1951V64.6983L197.284 64.2014C197.468 63.874 197.628 63.5408 197.789 63.2018H197.533L197.789 62.5821L198.169 62.7049L198.425 62.208L198.044 62.3308C198.247 61.8047 198.49 61.3019 198.746 60.7992L198.883 60.5303C199.192 59.9282 199.525 59.3378 199.863 58.7532C200.357 57.9114 200.803 57.0521 201.237 56.1811C201.605 55.4563 201.98 54.7314 202.372 54.0182C202.746 53.3109 203.127 52.6036 203.484 51.8904L203.608 51.6507C203.793 51.2883 203.977 50.9259 204.155 50.5634C205.035 48.8156 205.956 47.0969 206.919 45.39L207.276 44.7528C207.793 43.8351 207.793 43.8351 208.055 43.3849C208.144 43.2271 208.233 43.0693 208.316 42.9114C208.56 42.4847 208.816 42.093 209.149 41.7248L209.369 41.4676L209.583 41.2805H209.963V41.5319H212.371V41.2805H210.724V41.1577C211.33 41.035 211.919 41.0116 212.531 41.0116Z" fill="#233040"/>
<path d="M285.559 64.2713C286.159 64.2713 286.766 64.2713 287.366 64.2654C287.836 64.2654 288.311 64.2654 288.781 64.2654C289.001 64.2654 289.227 64.2654 289.447 64.2654C291.872 64.2537 291.872 64.2537 292.871 64.6688C293.435 65.0195 293.851 65.4229 294.273 65.9314C294.481 66.1828 294.481 66.1828 294.779 66.4575L294.981 66.6621V66.9077H295.23C295.385 67.0596 295.385 67.0596 295.575 67.2935C296.134 67.9482 296.764 68.5386 297.388 69.1407L297.638 69.3745L297.864 69.5908L298.024 69.772V70.0234L298.25 70.1228C298.553 70.2865 298.714 70.4501 298.934 70.719C299.445 71.3094 299.998 71.8472 300.557 72.3909C301.193 72.9988 301.805 73.6126 302.382 74.2732C302.697 74.6298 303.024 74.9747 303.351 75.3196C304.23 76.2549 304.23 76.2549 304.64 76.705L304.843 76.9271C304.997 77.1259 304.997 77.1259 305.122 77.5C305.294 77.5819 305.461 77.6637 305.633 77.7455C305.859 77.9735 305.859 77.9735 306.073 78.2307C306.317 78.5113 306.555 78.7802 306.828 79.0374L307.024 79.242V79.4875L307.238 79.5752C307.625 79.7915 307.892 80.0663 308.207 80.3761L308.391 80.5631C308.808 80.9782 309.194 81.4049 309.574 81.8433C310.199 82.5273 310.888 83.1645 311.554 83.8075C311.845 84.0998 312.041 84.357 312.226 84.7194V85.2221C310.175 85.3274 308.13 85.3624 306.079 85.3624C305.598 85.3624 305.116 85.3624 304.635 85.3624C300.242 85.3624 300.242 85.3624 298.785 85.0935V84.7194L298.274 84.4739V84.2225L298.072 84.1465C297.65 83.9069 297.335 83.5854 297.002 83.2522L296.782 83.03C296.621 82.878 296.473 82.726 296.318 82.5741C296.081 82.3402 295.849 82.1122 295.617 81.8843C294.945 81.2237 294.285 80.5631 293.673 79.8558C293.203 79.3356 292.692 78.8562 292.187 78.371C291.438 77.6462 290.719 76.9096 290.035 76.1263C289.785 75.8515 289.53 75.5826 289.28 75.3079L289.096 75.1091C288.763 74.7525 288.406 74.4135 288.032 74.092C287.318 73.4899 286.671 72.8235 286.023 72.1571L285.725 71.8648L285.464 71.6017C285.226 71.3796 285.226 71.3796 284.941 71.2919L284.709 71.2685C283.99 71.6719 283.431 72.4084 282.884 73.0047C282.278 73.6652 281.642 74.2849 281 74.9104C280.494 75.3956 280.013 75.9041 279.567 76.4419L279.383 76.6232H279.127C278.99 76.8687 278.877 77.1084 278.794 77.3714L278.705 77.6462L278.628 77.9092L278.491 78.1197C278.283 78.1664 278.069 78.2073 277.861 78.2424C277.641 78.4178 277.641 78.4178 277.463 78.6575C277.076 79.1193 276.672 79.5694 276.256 80.0136L276.084 80.2007C275.495 80.8262 274.877 81.4225 274.259 82.0246L273.278 82.9891C273.082 83.1762 272.885 83.3691 272.689 83.5561L272.339 83.901C272.023 84.2108 272.023 84.2108 271.804 84.5557C271.524 84.8363 271.393 84.9299 271.031 85.0702C270.222 85.2981 269.396 85.2806 268.558 85.2864L268.029 85.2981C267.654 85.304 267.28 85.304 266.911 85.3098C266.442 85.3098 265.978 85.3215 265.514 85.3274C263.517 85.3566 261.538 85.3507 259.54 85.2572L259.13 85.2338L258.773 85.2163C258.47 85.2221 258.232 85.2572 257.947 85.3449C257.864 85.1286 257.864 85.1286 257.822 84.848C257.947 84.5791 257.947 84.5791 258.131 84.3161L258.316 84.053L258.458 83.8484L258.839 83.977C259.041 83.7549 259.249 83.5386 259.457 83.3223L259.629 83.1352C259.933 82.8137 260.188 82.5156 260.361 82.1064L260.105 81.9836C261.133 80.873 262.185 79.7974 263.273 78.7451L263.654 78.8679C264.01 78.523 264.367 78.1723 264.724 77.8215L265.033 77.5234L265.33 77.237L265.598 76.9739C265.823 76.7635 265.823 76.7635 265.936 76.5004L265.74 76.6758C265.265 77.085 264.789 77.4883 264.29 77.8683C264.468 77.4825 264.67 77.2136 264.979 76.9154L265.247 76.6524L265.538 76.3718L265.835 76.0795C266.15 75.7755 266.465 75.4657 266.781 75.1617C266.989 74.9513 267.203 74.7467 267.417 74.5363C267.94 74.0277 268.457 73.5191 268.98 73.0105L269.36 73.1391C269.509 72.9988 269.652 72.8585 269.8 72.7183L270.044 72.4786C270.258 72.274 270.258 72.274 270.377 72.0168L269.36 72.765C269.61 72.274 269.883 71.97 270.276 71.5959L270.472 71.4088C270.68 71.2042 270.888 71.0055 271.096 70.8009C271.37 70.5378 271.643 70.2748 271.916 70.0117L272.113 69.8188C272.553 69.3862 272.975 68.9419 273.373 68.4801C273.587 68.2346 273.819 68.0066 274.056 67.7787C274.627 67.2292 275.156 66.6388 275.661 66.0308C276.185 65.4053 276.749 64.926 277.48 64.5402C279.9 63.8504 283.05 64.2713 285.559 64.2713Z" fill="#233040"/>
<path d="M259.938 41.1049H260.277C260.646 41.1049 261.014 41.1049 261.377 41.1049H262.15C262.685 41.099 263.22 41.099 263.755 41.099C264.444 41.099 265.128 41.099 265.817 41.099C266.346 41.0932 266.876 41.0932 267.405 41.0932C267.654 41.0932 267.91 41.0932 268.16 41.0932C268.516 41.0932 268.873 41.0932 269.224 41.0932C269.331 41.0932 269.432 41.0932 269.539 41.0932C270.305 41.0932 270.953 41.2101 271.637 41.5667C271.756 41.6368 271.869 41.7128 271.988 41.7888L272.338 42.0051C272.677 42.2623 272.921 42.5195 273.165 42.8703V43.1158L273.391 43.221C274.615 43.8582 275.768 45.1501 276.589 46.2315V46.4829L276.797 46.5648C277.201 46.7869 277.504 47.0909 277.825 47.4065L278.021 47.5936C278.188 47.7514 278.342 47.9268 278.491 48.1022V48.4763H278.871V48.7218L279.252 48.8446C279.424 49.0199 279.424 49.0199 279.614 49.2479C280.036 49.7331 280.482 50.1832 280.94 50.6333L281.16 50.8496C281.463 51.1419 281.772 51.4342 282.075 51.7323C282.301 51.9486 282.527 52.1649 282.747 52.387L282.967 52.5975C283.478 53.1061 283.936 53.6439 284.364 54.2284C284.566 54.4681 284.566 54.4681 284.863 54.5558C285.178 54.6026 285.178 54.6026 285.595 54.5792L285.678 54.3746C285.904 53.9829 286.195 53.6848 286.504 53.3633L286.706 53.1528C286.849 53.0008 286.997 52.8488 287.14 52.6969C287.378 52.4513 287.61 52.2058 287.841 51.9603C288.662 51.0951 289.482 50.2475 290.344 49.4233C290.594 49.1661 290.843 48.903 291.081 48.6283C291.682 47.9502 292.335 47.3247 292.989 46.6934C293.518 46.1789 294.024 45.6528 294.511 45.0975C294.862 44.7117 295.23 44.3434 295.605 43.981L295.837 43.753C296.318 43.2853 296.806 42.8411 297.317 42.4085C297.567 42.2039 297.792 41.9759 298.024 41.7479L298.274 41.8707C296.693 43.449 296.693 43.449 295.866 44.1154L295.991 44.3609L296.247 44.0453C296.586 43.6478 296.954 43.3204 297.359 42.9872C297.561 42.8118 297.763 42.6306 297.953 42.4436C298.767 41.6661 298.767 41.6661 299.213 41.5258C299.499 41.4907 299.499 41.4907 299.926 41.4966L299.166 41.3738C299.546 41.1224 299.546 41.1224 300.028 41.0932C300.236 41.0932 300.444 41.0932 300.646 41.0932H300.991C301.365 41.0874 301.74 41.0932 302.108 41.0932H302.887C303.434 41.0874 303.981 41.0932 304.522 41.0932C305.217 41.0932 305.918 41.0932 306.614 41.0932C307.149 41.0874 307.684 41.0874 308.225 41.0932C308.481 41.0932 308.736 41.0932 308.992 41.0932C309.354 41.0874 309.711 41.0932 310.074 41.0932H310.395C310.936 41.0932 311.352 41.1283 311.845 41.3738C311.827 41.5842 311.827 41.5842 311.72 41.8707C311.536 42.0227 311.358 42.1747 311.173 42.3149C310.947 42.502 310.769 42.6949 310.585 42.9171C309.729 43.8991 308.754 44.7877 307.815 45.6996C307.571 45.9451 307.339 46.1965 307.113 46.4595C306.507 47.1435 305.859 47.7865 305.158 48.3828C304.7 48.7627 304.272 49.1719 303.85 49.587L303.66 49.7682C303.327 50.0955 303.006 50.4404 302.697 50.797C302.007 51.5803 301.234 52.2994 300.479 53.0301C299.802 53.6906 299.124 54.357 298.5 55.0761C297.899 55.7366 297.24 56.3504 296.592 56.97C296.009 57.5429 295.438 58.1158 294.909 58.7354C294.725 58.94 294.725 58.94 294.339 59.2499C294.018 59.5129 293.816 59.7351 293.578 60.0683C293.269 60.4716 293.025 60.799 292.567 61.0562C291.23 61.4595 289.75 61.3368 288.371 61.3309H287.55C286.986 61.3309 286.415 61.3309 285.85 61.3309C285.119 61.3251 284.394 61.3251 283.663 61.3251C283.104 61.3251 282.545 61.3251 281.98 61.3251C281.713 61.3251 281.445 61.3251 281.178 61.3251C280.803 61.3251 280.429 61.3251 280.054 61.3192L279.715 61.3251C279.204 61.3192 278.741 61.2958 278.241 61.1789L277.855 61.1322C277.213 60.9977 276.803 60.5827 276.327 60.1559C275.465 59.3609 274.639 58.5367 273.813 57.7066C273.599 57.4962 273.385 57.2857 273.171 57.0753C272.915 56.8181 272.915 56.8181 272.612 56.4556C272.386 56.1809 272.148 55.9587 271.869 55.7366C271.358 55.3216 270.971 54.8364 270.561 54.3278C270.133 53.8134 269.669 53.3223 269.206 52.8372C268.95 52.5624 268.706 52.2877 268.457 52.0071C267.951 51.4342 267.405 50.9022 266.852 50.3644C266.644 50.1598 266.43 49.9552 266.222 49.7506C265.889 49.4291 265.562 49.1076 265.229 48.7861C264.908 48.4763 264.593 48.1665 264.272 47.8508L263.969 47.5585L263.689 47.2896L263.446 47.0499L263.273 46.857V46.6057H263.024C262.863 46.4245 262.709 46.2374 262.56 46.0562C262.382 45.834 262.382 45.834 262.084 45.6236C261.793 45.3898 261.579 45.1676 261.335 44.887C261.032 44.5363 260.723 44.2323 260.366 43.94C259.641 43.3379 258.981 42.6014 258.583 41.7479L258.203 41.8707L258.327 41.251C258.868 41.099 259.386 41.1049 259.938 41.1049ZM324.18 41.1049H325.761C326.147 41.099 326.528 41.099 326.914 41.099C327.408 41.099 327.901 41.099 328.388 41.099C328.769 41.0932 329.149 41.0932 329.53 41.0932C329.708 41.0932 329.892 41.0932 330.071 41.0932C330.326 41.0932 330.582 41.0932 330.832 41.0932H331.271C331.628 41.1224 331.628 41.1224 332.009 41.3738C332.044 41.7245 332.044 41.7245 332.032 42.1337L332.02 42.5488L332.009 42.8703H332.258V41.251L332.514 41.3738C332.52 47.5351 332.526 53.7023 332.52 59.8637V60.2612C332.52 62.3598 332.526 64.4584 332.526 66.557C332.526 68.7082 332.526 70.8594 332.526 73.0106C332.526 74.3434 332.526 75.6704 332.526 76.9973C332.532 77.9092 332.532 78.8212 332.532 79.7331C332.532 80.2592 332.532 80.7853 332.532 81.3114C332.532 81.7908 332.532 82.2701 332.532 82.7495C332.532 82.9248 332.532 83.1002 332.532 83.2756C332.532 83.5094 332.532 83.7491 332.532 83.9829V84.3804C332.514 84.6844 332.478 84.9357 332.389 85.2222H332.133V84.3512L331.878 85.2222C331.17 85.3216 330.487 85.3625 329.767 85.3566H329.458C328.204 85.3449 326.956 85.3157 325.707 85.2806L324.988 85.2631C324.412 85.2514 323.835 85.2339 323.258 85.2222C322.854 84.4622 322.818 83.8134 322.812 82.9658L322.807 82.5332C322.801 82.124 322.795 81.7148 322.795 81.2997C322.789 81.0308 322.789 80.7619 322.783 80.493C322.711 74.0219 322.729 67.5507 322.735 61.0796C322.735 59.6708 322.735 58.2619 322.735 56.8531C322.735 55.0176 322.735 53.1879 322.735 51.3524V51.0893C322.735 50.4814 322.735 49.8792 322.735 49.2713C322.735 48.4587 322.735 47.652 322.735 46.8395C322.735 46.5414 322.735 46.2432 322.735 45.951C322.729 41.9642 322.729 41.9642 323.003 41.251C323.425 41.1107 323.734 41.1049 324.18 41.1049Z" fill="#233040"/>
<path d="M285.559 64.2712C286.159 64.2712 286.766 64.2712 287.366 64.2653C287.836 64.2653 288.311 64.2653 288.781 64.2653C289.001 64.2653 289.227 64.2653 289.447 64.2653C291.872 64.2537 291.872 64.2537 292.871 64.6687C293.435 65.0194 293.851 65.4228 294.273 65.9314C294.481 66.1827 294.481 66.1827 294.779 66.4575L294.981 66.6621V66.9076H295.23C295.385 67.0596 295.385 67.0596 295.575 67.2934C296.134 67.9481 296.764 68.5385 297.388 69.1406L297.638 69.3745L297.864 69.5908L298.024 69.772V70.0233L298.25 70.1227C298.553 70.2864 298.714 70.4501 298.934 70.719C299.445 71.3094 299.998 71.8472 300.557 72.3908C301.193 72.9988 301.805 73.6126 302.382 74.2731C302.697 74.6297 303.024 74.9746 303.351 75.3195C304.23 76.2548 304.23 76.2548 304.64 76.7049L304.843 76.9271C304.997 77.1258 304.997 77.1258 305.122 77.4999C305.294 77.5818 305.461 77.6636 305.633 77.7455C305.859 77.9734 305.859 77.9734 306.073 78.2307C306.317 78.5113 306.555 78.7802 306.828 79.0374L307.024 79.242V79.4875L307.238 79.5752C307.625 79.7915 307.892 80.0662 308.207 80.376L308.391 80.5631C308.808 80.9781 309.194 81.4049 309.574 81.8433C310.199 82.5272 310.888 83.1644 311.554 83.8074C311.845 84.0997 312.041 84.3569 312.226 84.7194V85.2221C310.175 85.3273 308.13 85.3624 306.079 85.3624C305.598 85.3624 305.116 85.3624 304.635 85.3624C300.242 85.3624 300.242 85.3624 298.785 85.0935V84.7194H298.53V84.2225L298.75 84.2985L299.047 84.4037L299.332 84.5031C300.105 84.7194 300.878 84.7427 301.674 84.7486H301.995C302.352 84.7544 302.703 84.7603 303.059 84.7603L303.796 84.772C304.444 84.7778 305.086 84.7837 305.734 84.7895C306.394 84.7953 307.054 84.8012 307.714 84.807C309.004 84.8246 310.3 84.8363 311.589 84.848C311.477 84.6667 311.358 84.4914 311.239 84.316L311.043 84.012C310.763 83.6379 310.436 83.3632 310.068 83.0709C309.729 82.7844 309.45 82.4629 309.164 82.1297C308.897 81.8199 308.617 81.5159 308.344 81.212L308.064 80.908C307.708 80.5222 307.327 80.1597 306.947 79.7915C305.265 78.1722 305.265 78.1722 304.759 77.4415C304.51 77.1024 304.218 76.8628 303.886 76.5997C303.493 76.284 303.178 75.9216 302.845 75.5416C302.542 75.2026 302.215 74.8869 301.888 74.5713C301.419 74.1153 300.961 73.636 300.533 73.1391C300.265 72.8409 299.974 72.5662 299.689 72.2915C299.267 71.8823 298.892 71.4731 298.53 71.0171C297.894 70.2338 297.174 69.544 296.443 68.8484C295.908 68.3281 295.397 67.802 294.909 67.2408C294.666 66.966 294.386 66.7556 294.089 66.5335L293.756 66.2003C293.477 65.8904 293.477 65.8904 293.079 65.7852L293.043 65.4929L292.948 65.1656C292.74 65.0019 292.74 65.0019 292.443 64.9142C292.015 64.8908 292.015 64.8908 291.545 64.9084C290.998 64.9201 290.469 64.9142 289.922 64.8558C288.9 64.7564 287.871 64.7739 286.837 64.7739H286.51C284.531 64.7798 282.551 64.8207 280.572 64.9025C280.179 64.9142 279.787 64.9201 279.395 64.9259C278.348 64.9259 278.348 64.9259 277.35 65.2123C277.046 65.4111 277.046 65.4111 276.803 65.6274L276.589 65.7852H276.083C276.214 65.4754 276.321 65.3 276.595 65.0837L277.189 64.6979C279.216 63.5989 283.27 64.2712 285.559 64.2712Z" fill="#233040"/>
<path d="M323.383 41.6251V41.8531C323.359 44.3668 323.342 46.8804 323.318 49.394V49.6863C323.27 56.2276 323.246 62.7631 323.252 69.2986C323.252 71.7011 323.252 74.0979 323.258 76.5004H322.878C322.729 75.8106 322.735 75.1442 322.735 74.4427V74.0452C322.735 73.6068 322.735 73.1625 322.735 72.7183V71.7713C322.735 70.9996 322.735 70.228 322.735 69.4564C322.735 68.8309 322.735 68.2054 322.735 67.5799V66.7615C322.735 65.0604 322.735 63.3594 322.735 61.6583C322.735 60.2027 322.735 58.7413 322.735 57.2857C322.735 55.3216 322.735 53.3516 322.735 51.3874C322.735 50.7619 322.735 50.1364 322.735 49.511C322.735 48.6692 322.735 47.8274 322.735 46.9798C322.735 46.6758 322.735 46.366 322.735 46.0562C322.729 42.4669 322.729 42.4669 322.878 41.7479C323.128 41.6251 323.128 41.6251 323.383 41.6251ZM259.938 41.1049H260.277C260.646 41.1049 261.014 41.1049 261.377 41.1049H262.15C262.685 41.099 263.22 41.099 263.755 41.099C264.444 41.099 265.128 41.099 265.817 41.099C266.346 41.0932 266.876 41.0932 267.405 41.0932C267.654 41.0932 267.91 41.0932 268.16 41.0932C268.516 41.0932 268.873 41.0932 269.224 41.0932C269.331 41.0932 269.432 41.0932 269.539 41.0932C270.305 41.0932 270.953 41.2101 271.637 41.5667C271.756 41.6368 271.869 41.7128 271.988 41.7888L272.338 42.0051C272.677 42.2623 272.921 42.5195 273.165 42.8703V43.1158L273.391 43.221C274.615 43.8582 275.768 45.1501 276.589 46.2315V46.4829L276.809 46.5764C277.142 46.7518 277.367 46.9622 277.635 47.2195L277.908 47.4825L278.11 47.728V48.1022H277.73C277.534 47.9151 277.534 47.9151 277.326 47.6637C276.862 47.1259 276.387 46.6115 275.899 46.0971L275.661 45.8457C275.115 45.2728 274.538 44.7467 273.926 44.2382C272.642 43.145 272.642 43.145 272.279 42.6189V42.3675L272.012 42.274C271.643 42.122 271.643 42.122 271.31 41.8648C270.846 41.6018 270.597 41.5667 270.074 41.5608L269.765 41.5667H269.432C269.069 41.5667 268.712 41.5725 268.35 41.5784C268.1 41.5784 267.844 41.5784 267.595 41.5784C266.935 41.5842 266.275 41.5901 265.615 41.5959C264.557 41.6076 263.499 41.6076 262.441 41.6135C262.067 41.6193 261.698 41.6193 261.329 41.6251L260.652 41.631H260.337C259.629 41.6368 259.629 41.6368 259.344 41.4965L259.528 41.9116C259.647 42.1863 259.754 42.4611 259.849 42.7417H260.105V42.4962H260.36L260.485 43.3672L260.848 43.4548L261.246 43.6127C261.335 43.8231 261.419 44.0277 261.502 44.2382L261.817 44.3492L262.132 44.4895C262.298 44.9396 262.298 44.9396 262.388 45.3605L262.679 45.3839L263.024 45.4833C263.226 45.7931 263.226 45.7931 263.404 46.1088L263.784 46.2315L263.654 47.1025L263.273 46.857V46.6057H263.024C262.863 46.4244 262.709 46.2374 262.56 46.0562C262.382 45.834 262.382 45.834 262.084 45.6236C261.793 45.3898 261.579 45.1676 261.335 44.887C261.032 44.5363 260.723 44.2323 260.366 43.94C259.641 43.3379 258.981 42.6014 258.583 41.7479L258.203 41.8707L258.327 41.251C258.868 41.099 259.386 41.1049 259.938 41.1049Z" fill="#233040"/>
<path d="M323.383 41.6252L323.258 58.4373H323.003C322.854 56.8473 322.848 55.2631 322.83 53.6673L322.824 52.7904C322.818 52.1766 322.812 51.5687 322.806 50.9607C322.801 50.1774 322.789 49.3999 322.783 48.6224C322.777 48.0203 322.771 47.4182 322.765 46.8161C322.765 46.5239 322.759 46.2374 322.759 45.951C322.717 42.5254 322.717 42.5254 322.878 41.7479C323.127 41.6252 323.127 41.6252 323.383 41.6252Z" fill="#233040"/>
<path d="M238.164 63.9205H238.544C238.628 64.0959 238.711 64.2713 238.794 64.4466L238.931 64.7448C239.038 65.002 239.121 65.265 239.181 65.5398C238.717 65.1189 238.414 64.7448 238.164 64.166V63.9205ZM190.103 83.2288H190.359L190.306 83.4918L190.234 83.8367L190.163 84.1758C190.097 84.4622 190.097 84.4622 190.103 84.7194L189.723 84.848C189.628 84.5265 189.628 84.5265 189.598 84.0998C189.735 83.7783 189.907 83.5211 190.103 83.2288Z" fill="#233040"/>
<path d="M275.578 66.4107H275.828C275.685 66.7731 275.548 66.931 275.245 67.1882L274.942 67.4045V67.0362C275.245 66.6972 275.245 66.6972 275.578 66.4107Z" fill="#233040"/>
<path d="M194.163 68.4042L194.288 68.6556C194.187 68.866 194.187 68.866 194.045 69.1057L193.783 69.5266L193.527 69.2752C194.021 68.5445 194.021 68.5445 194.163 68.4042Z" fill="#233040"/>
<defs>
<linearGradient id="paint0_linear_1_233" x1="112.672" y1="86.0434" x2="135.274" y2="106.76" gradientUnits="userSpaceOnUse">
<stop stop-color="#5C9CCB"/>
<stop offset="1" stop-color="#3FA7E8"/>
</linearGradient>
<linearGradient id="paint1_linear_1_233" x1="91.0574" y1="108.442" x2="58.4827" y2="75.4274" gradientUnits="userSpaceOnUse">
<stop stop-color="#263345"/>
<stop offset="1" stop-color="#4E5C70"/>
</linearGradient>
<linearGradient id="paint2_linear_1_233" x1="130.685" y1="37.5733" x2="111.534" y2="64.2194" gradientUnits="userSpaceOnUse">
<stop stop-color="white"/>
<stop offset="1" stop-color="#8ADBF7"/>
</linearGradient>
<linearGradient id="paint3_linear_1_233" x1="65.5122" y1="61.8084" x2="31.0813" y2="105.774" gradientUnits="userSpaceOnUse">
<stop stop-color="white"/>
<stop offset="1" stop-color="#5C9CCB"/>
</linearGradient>
<linearGradient id="paint4_linear_1_233" x1="101.033" y1="37.2404" x2="76.8658" y2="66.5412" gradientUnits="userSpaceOnUse">
<stop stop-color="#5C9CCB"/>
<stop offset="1" stop-color="white"/>
</linearGradient>
</defs>
</svg>
